<?xml version="1.0" encoding="UTF-8"?>
<svg version="1.1" xmlns="http://www.w3.org/2000/svg" width="1024" height="1024">
<path d="M0 0 C0 0.66 0 1.32 0 2 C1.2375 2.0825 2.475 2.165 3.75 2.25 C21.72370223 4.35300728 37.55000075 14.77698348 49.01953125 28.3984375 C50.83297693 30.86275871 52.43189354 33.37276674 54 36 C54.94939453 37.54300781 54.94939453 37.54300781 55.91796875 39.1171875 C60.38949077 46.72301488 63.49368398 54.65124432 66.3125 63 C66.66836182 64.03745361 67.02422363 65.07490723 67.39086914 66.14379883 C68.85961988 70.62591701 70.17648827 74.74833786 70.25390625 79.48828125 C70.39416426 83.91771971 70.61495465 86.230239 73 90 C79.77274973 94.50926045 87.77078887 96.93338114 95.37939453 99.65527344 C101.05036191 101.76152349 106.51953655 104.25748977 112 106.8125 C113.5929187 107.55016602 113.5929187 107.55016602 115.21801758 108.30273438 C132.39402738 116.35994341 149.36969584 125.20764713 165 136 C165.99386719 136.67579102 165.99386719 136.67579102 167.0078125 137.36523438 C176.83383473 144.05586224 186.07855032 151.14862657 195 159 C195.76957031 159.65871094 196.53914062 160.31742188 197.33203125 160.99609375 C206.53739663 168.89897913 206.53739663 168.89897913 210 173 C210 173.66 210 174.32 210 175 C210.66 175 211.32 175 212 175 C213.78857837 177.12794966 215.43642413 179.25157829 217.0625 181.5 C217.55419678 182.17853027 218.04589355 182.85706055 218.55249023 183.55615234 C225.36896088 193.14219303 230.7833218 203.26571697 235.67749023 213.94555664 C240.16657692 223.71438681 244.81414112 231.95410132 252 240 C252.76699219 240.86496094 253.53398438 241.72992188 254.32421875 242.62109375 C272.79689786 262.1929736 301.40341161 277.7850234 326 288 C326.99 288 327.98 288 329 288 C329.40089844 288.42152344 329.80179688 288.84304688 330.21484375 289.27734375 C332.89229692 291.86105677 336.20344225 293.0708455 339.5625 294.5625 C352.04232692 300.28588655 364.00022318 306.87002994 375.5 314.375 C376.12922363 314.77960449 376.75844727 315.18420898 377.40673828 315.60107422 C380.55156672 317.70845158 382.73569667 319.35681014 384 323 C383.3503125 323.7115625 383.3503125 323.7115625 382.6875 324.4375 C377.2459484 332.70059687 375.74964499 343.8075909 377.42578125 353.44921875 C378.95608425 359.42960531 381.66738276 363.87263014 385.37890625 368.7734375 C387 371 387 371 387.96484375 373.1640625 C389.28510482 375.5056576 390.58064037 375.92370693 393 377 C393.94875 377.86625 394.8975 378.7325 395.875 379.625 C402.26214854 385.27463466 410.37211958 389.29016237 418 393 C413.06375828 407.32983605 405.42823033 421.16080848 396 433 C395.36964844 433.81984375 394.73929688 434.6396875 394.08984375 435.484375 C392.91337592 437.01303383 391.72918829 438.5358021 390.53515625 440.05078125 C389.23204527 441.70536745 387.95665528 443.38172679 386.6875 445.0625 C386.130625 445.701875 385.57375 446.34125 385 447 C384.34 447 383.68 447 383 447 C383 447.66 383 448.32 383 449 C379.53184541 452.23336656 375.73626481 455.08411956 372 458 C370.72189453 459.01707031 370.72189453 459.01707031 369.41796875 460.0546875 C342.55962332 480.6007029 307.01334312 486.56079758 274 489 C287.58159021 493.52719674 303.76948552 492.19400399 317.9375 492.1875 C318.77357788 492.18831573 319.60965576 492.18913147 320.47106934 492.18997192 C330.69504691 492.18884544 340.81007342 491.90366835 351 491 C346.45891599 505.34480172 333.64464462 514.18863943 320.87890625 521.0546875 C292.1535998 535.81844992 258.83857431 538.95426953 227.01815224 539.26036072 C224.80241556 539.28184003 222.58679987 539.3088007 220.37113953 539.33703613 C214.8848807 539.40595345 209.39853769 539.46649279 203.91217041 539.52606201 C199.23734153 539.57701868 194.56258917 539.631754 189.88786888 539.69187927 C187.70809076 539.71835753 185.52830463 539.73920564 183.34846497 539.7598877 C182.03246811 539.77660522 180.71647125 539.79332275 179.3605957 539.81054688 C177.62190971 539.82933899 177.62190971 539.82933899 175.84809875 539.84851074 C172.9246582 539.87767364 172.9246582 539.87767364 170 541 C170 540.34 170 539.68 170 539 C169.34 539.33 168.68 539.66 168 540 C166.27764379 540.18714098 164.54943294 540.32163577 162.8203125 540.4296875 C161.7566748 540.5009082 160.69303711 540.57212891 159.59716797 540.64550781 C158.45135254 540.72124023 157.30553711 540.79697266 156.125 540.875 C110.88440855 544.17940102 63.02540825 555.70584306 32.1875 591.3125 C15.81208632 612.20319319 10.77252125 638.56560583 13.77416992 664.54150391 C15.60107994 678.64570693 19.52620596 700.52620596 30 711 C30.98862451 712.75410235 31.94278991 714.52777654 32.875 716.3125 C34.96249139 720.22142995 37.14585809 723.59698465 40 727 C40 727.66 40 728.32 40 729 C40.99 729.33 41.98 729.66 43 730 C43.93530015 731.35098911 44.85939989 732.71074385 45.734375 734.1015625 C47.18726566 736.28089849 48.78590024 738.27922803 50.4375 740.3125 C75.49046271 771.38377219 110.99455566 818.87498447 109 861 C109.66 861.33 110.32 861.66 111 862 C111.35913086 863.90185547 111.35913086 863.90185547 111.52734375 866.4921875 C111.60065918 867.49088867 111.67397461 868.48958984 111.74951172 869.51855469 C111.83217285 870.66743164 111.91483398 871.81630859 112 873 C112.18169586 874.99641127 112.36367023 876.99280462 112.55215454 878.98858643 C112.82998871 881.94142029 113.09332707 884.89549797 113.35717773 887.84960938 C113.49311243 889.35604377 113.63174638 890.86223724 113.77319336 892.36816406 C115.21110248 907.7170469 115.42320256 922.79955075 114.1875 938.1875 C114.05819092 939.85014893 114.05819092 939.85014893 113.92626953 941.54638672 C113.24942739 949.55236175 112.11821189 957.23322305 110 965 C109.34 964.67 108.68 964.34 108 964 C108 963.01 108 962.02 108 961 C107.34 961 106.68 961 106 961 C106 960.34 106 959.68 106 959 C105.40775635 958.7306665 104.8155127 958.46133301 104.20532227 958.18383789 C102.00274358 957.00147278 100.50649939 955.78794028 98.71484375 954.05859375 C98.10753418 953.47948242 97.50022461 952.90037109 96.87451172 952.30371094 C96.23529785 951.68786133 95.59608398 951.07201172 94.9375 950.4375 C88.84018071 944.65954308 82.61603221 939.18399061 76 934 C75.05511719 933.24847656 74.11023438 932.49695313 73.13671875 931.72265625 C50.02032655 913.29897281 50.02032655 913.29897281 24.14453125 899.38671875 C21 898 21 898 20 896 C17.6859378 895.26924352 15.35171131 894.59861742 13 894 C13.19471111 895.94999129 13.19471111 895.94999129 14 898 C14.59296875 898.22945312 15.1859375 898.45890625 15.796875 898.6953125 C19.08825484 900.64446298 20.33295932 903.68734797 22 907 C22.34957764 907.6813501 22.69915527 908.3627002 23.05932617 909.06469727 C24.05774323 911.03473607 25.03361076 913.01408853 26 915 C26.42925781 915.87527344 26.85851562 916.75054688 27.30078125 917.65234375 C30.58465557 925.06958884 31.69750333 933.04687637 33 941 C29.15055415 939.66957749 26.65006741 938.01383213 23.625 935.3125 C-10.9501437 907.00506437 -68.40681563 915.43959395 -109.76171875 918.58203125 C-142.95575276 921.03788345 -176.87680791 921.68767149 -210 918 C-210.33 918.66 -210.66 919.32 -211 920 C-211.66 919.34 -212.32 918.68 -213 918 C-215.78652463 917.31715165 -215.78652463 917.31715165 -219.08984375 916.8515625 C-220.96687988 916.55306396 -220.96687988 916.55306396 -222.88183594 916.24853516 C-223.54469604 916.14663879 -224.20755615 916.04474243 -224.89050293 915.9397583 C-228.30861603 915.41416914 -231.72285478 914.86493497 -235.13671875 914.3125 C-236.15078293 914.14882431 -236.15078293 914.14882431 -237.18533325 913.98184204 C-243.70617752 912.91365076 -250.15496092 911.57793093 -256.58959961 910.08056641 C-260.36832623 909.03404159 -260.36832623 909.03404159 -264 910 C-264.33 909.34 -264.66 908.68 -265 908 C-267.03342751 907.18960773 -267.03342751 907.18960773 -269.5390625 906.5546875 C-270.49965576 906.2870459 -271.46024902 906.0194043 -272.44995117 905.74365234 C-273.49771729 905.45699707 -274.5454834 905.1703418 -275.625 904.875 C-312.22152104 894.46235045 -353.01785808 879.36890939 -383.11401367 855.31005859 C-385.02792562 853.71475129 -385.02792562 853.71475129 -388 854 C-388 853.01 -388 852.02 -388 851 C-388.721875 850.7525 -389.44375 850.505 -390.1875 850.25 C-393 849 -393 849 -395.3125 847.125 C-398.13709688 844.89159782 -400.90803997 843.48332351 -404.14453125 841.953125 C-406 841 -406 841 -408.25 839.1875 C-409.96415569 837.73892601 -409.96415569 837.73892601 -412.25 838.3125 C-412.8275 838.539375 -413.405 838.76625 -414 839 C-414.268125 838.443125 -414.53625 837.88625 -414.8125 837.3125 C-416.00699665 834.91066602 -416.00699665 834.91066602 -417.625 832.375 C-419 830 -419 830 -419 828 C-419.5775 827.731875 -420.155 827.46375 -420.75 827.1875 C-425.23435763 824.82075569 -428.44803335 821.58263111 -432 818 C-432.8971875 817.1028125 -433.794375 816.205625 -434.71875 815.28125 C-443 807 -443 807 -445.578125 804.4140625 C-447.08842772 802.90863172 -448.60779218 801.4121718 -450.140625 799.9296875 C-455.91259697 794.30735925 -460.9891535 788.30192947 -466 782 C-466.93392578 780.86691406 -466.93392578 780.86691406 -467.88671875 779.7109375 C-479.66028883 765.34570104 -489.7315501 750.07128638 -499 734 C-499.42297363 733.27506348 -499.84594727 732.55012695 -500.28173828 731.80322266 C-504.50041317 724.56759688 -508.47942349 717.26054942 -512.0625 709.6875 C-512.511698 708.7442688 -512.511698 708.7442688 -512.9699707 707.78198242 C-514.25653033 704.98807889 -515 703.11646069 -515 700 C-515.66 699.67 -516.32 699.34 -517 699 C-517.95800781 697.00073242 -517.95800781 697.00073242 -518.953125 694.35546875 C-519.32252197 693.37739258 -519.69191895 692.39931641 -520.07250977 691.39160156 C-520.46108154 690.33424805 -520.84965332 689.27689453 -521.25 688.1875 C-521.84735962 686.57633301 -521.84735962 686.57633301 -522.45678711 684.93261719 C-525.01841298 677.92880881 -527.40431669 670.88845203 -529.5625 663.75 C-529.81354492 662.92395264 -530.06458984 662.09790527 -530.32324219 661.24682617 C-531.40010019 657.56859134 -532 654.90119011 -532 651 C-532.66 650.67 -533.32 650.34 -534 650 C-534.5625 647.89160156 -534.5625 647.89160156 -535 645.140625 C-535.165 644.14224609 -535.33 643.14386719 -535.5 642.11523438 C-535.665 641.08720703 -535.83 640.05917969 -536 639 C-536.3299746 637.140026 -536.66323998 635.28063243 -537 633.421875 C-540.84809587 611.7004611 -543.22410225 590.38021317 -543.1875 568.3125 C-543.18656342 567.57132935 -543.18562683 566.83015869 -543.18466187 566.06652832 C-543.15165845 553.9388317 -542.70140658 542.01840206 -541 530 C-540.84934082 528.89833496 -540.69868164 527.79666992 -540.54345703 526.66162109 C-537.17593807 502.68786216 -532.11862815 479.11977952 -521.46875 457.24609375 C-519.79388356 454.13827963 -519.79388356 454.13827963 -520 451 C-519.34 451 -518.68 451 -518 451 C-517.34 448.69 -516.68 446.38 -516 444 C-533.10961835 460.05129144 -547.69584771 480.73908216 -553 504 C-553.66 504 -554.32 504 -555 504 C-558.9615746 483.3734016 -560.48190803 462.99119026 -561 442 C-561.02336426 441.14937988 -561.04672852 440.29875977 -561.07080078 439.42236328 C-562.61709942 376.72580079 -544.28386379 314.99057316 -516.89648438 259.16918945 C-516.40470703 258.16331787 -515.91292969 257.15744629 -515.40625 256.12109375 C-514.74592773 254.78195923 -514.74592773 254.78195923 -514.07226562 253.41577148 C-513.11907268 251.26826598 -512.47729467 249.29348086 -512 247 C-511.34 247 -510.68 247 -510 247 C-509.71898437 246.27039063 -509.43796875 245.54078125 -509.1484375 244.7890625 C-504.34820066 233.13134446 -496.80581523 222.54923616 -490 212 C-489.57170898 211.33419922 -489.14341797 210.66839844 -488.70214844 209.98242188 C-478.93893191 194.86874206 -468.34471272 180.31737619 -456.49780273 166.76879883 C-455.35051286 165.41393083 -454.23299051 164.03380626 -453.12915039 162.64331055 C-447.41753177 155.46884139 -441.25365038 148.94347061 -434.74975586 142.48901367 C-433.03318658 140.78337321 -431.32783355 139.06701871 -429.62304688 137.34960938 C-428.53189236 136.25977315 -427.4401194 135.17055569 -426.34765625 134.08203125 C-425.83936783 133.56969437 -425.33107941 133.05735748 -424.80738831 132.52949524 C-421.23004276 129 -421.23004276 129 -419 129 C-419 128.34 -419 127.68 -419 127 C-417.30725716 125.43567213 -415.54430148 123.94671428 -413.75 122.5 C-412.77546875 121.7059375 -411.8009375 120.911875 -410.796875 120.09375 C-408.55105238 118.41251966 -406.5534197 117.11864101 -404 116 C-404 115.34 -404 114.68 -404 114 C-401.99365234 112.32714844 -401.99365234 112.32714844 -399.2109375 110.359375 C-397.69838379 109.28719727 -397.69838379 109.28719727 -396.15527344 108.19335938 C-314.72627188 51.58873619 -218.81733208 27.54366727 -120.25 42.4375 C-119.56026093 42.54073578 -118.87052185 42.64397156 -118.15988159 42.75033569 C-110.69585867 43.88358853 -103.44213315 45.24334417 -96.21191406 47.43383789 C-93.81542197 48.144647 -93.81542197 48.144647 -90.5 48 C-88 48 -88 48 -86.125 49.5 C-85.75375 49.995 -85.3825 50.49 -85 51 C-84.896875 50.28199219 -84.79375 49.56398437 -84.6875 48.82421875 C-82.42859068 39.54472195 -74.5182779 31.62584024 -68 25 C-67.23945313 24.2265625 -66.47890625 23.453125 -65.6953125 22.65625 C-53.89623323 11.3600823 -39.14365181 4.49058789 -23.125 1.75 C-21.68906494 1.49524902 -21.68906494 1.49524902 -20.22412109 1.23535156 C-13.41361681 0.08776023 -6.91081442 -0.52487198 0 0 Z M-229.04125977 94.04516602 C-235.83049952 97.49873789 -242.28450348 97.75364394 -249.8125 98.0625 C-291.84957049 100.39466104 -328.13423135 112.52747785 -359 142 C-359.721875 142.64710938 -360.44375 143.29421875 -361.1875 143.9609375 C-371.47394097 153.54936997 -381.54961061 167.39151366 -387.0078125 180.40234375 C-389.81531117 186.98436842 -393.72146246 190.82792987 -398.98950195 195.47045898 C-408.26296384 203.67294927 -415.18983306 213.73952077 -422 224 C-422.54527344 224.79664063 -423.09054687 225.59328125 -423.65234375 226.4140625 C-438.22626298 248.91279192 -443.69348934 280.13563101 -438.8125 306.375 C-434.19636857 327.5836776 -424.34005849 344.11522062 -408.20703125 358.48828125 C-405.57403256 361.48477357 -405.28317373 363.13350419 -404.9375 367.0625 C-402.79995247 384.31833824 -394.59988964 398.28074781 -382 410 C-367.1070929 421.28978441 -351.6319334 423.20507241 -333.4375 423.0625 C-332.33341797 423.05798828 -331.22933594 423.05347656 -330.09179688 423.04882812 C-327.394473 423.0371514 -324.69726653 423.02077525 -322 423 C-315.61841278 435.2160184 -315.80375638 443.54654831 -319.09692383 456.77490234 C-321.66423878 467.2572842 -323.27934875 477.09331684 -317.54296875 486.87890625 C-312.17023269 494.2647181 -305.77549234 496.73032072 -297.0859375 498.640625 C-289.30984547 499.54619521 -281.33274519 496.49705492 -275.1628418 491.85009766 C-268.18181764 485.87852061 -264.04041532 477.78104897 -260 469.6875 C-258.95496642 467.64489019 -257.9081086 465.60321259 -256.859375 463.5625 C-256.1178418 462.11423828 -256.1178418 462.11423828 -255.36132812 460.63671875 C-251.17272527 452.52392986 -246.6230508 445.13915615 -240.69921875 438.15625 C-238.94504167 436.10644071 -238.94504167 436.10644071 -238.01953125 433.84375 C-236.71205699 431.47927548 -235.42527749 431.10157464 -233 430 C-231.82652787 428.96810687 -230.68231534 427.90238709 -229.5625 426.8125 C-217.91393409 416.40499625 -205.29799044 413.86446539 -190.30859375 412.87695312 C-177.23015227 411.86460514 -165.92632437 407.99341817 -157 398 C-153.25866574 391.79437357 -152.53996979 386.13046831 -153 379 C-155.17741246 380.05099123 -157.26472797 381.15866 -159.33984375 382.40234375 C-173.49500134 390.7677226 -187.24107137 391.54572291 -202.92480469 387.60400391 C-208.79978319 385.89403957 -214.37917147 383.31906522 -219.97509766 380.87109375 C-223.05935892 379.54427386 -226.17927812 378.33197461 -229.3125 377.125 C-230.82263672 376.54105469 -230.82263672 376.54105469 -232.36328125 375.9453125 C-252.42676894 368.75218062 -271.70138935 378.13051948 -289.78125 386.23828125 C-311.73738866 396.05211157 -333.93244699 403.99727579 -358 397 C-367.32230101 393.13525799 -374.56258738 386.08312287 -378.4375 376.75 C-382.73014884 364.96927762 -381.75837709 352.63481148 -376.60595703 341.2824707 C-372.61054677 333.00427498 -367.47643468 326.09338073 -361.5390625 319.109375 C-358.80858778 315.85841864 -357.17080577 313.33797857 -356.625 309.0625 C-357.09608035 305.21534378 -358.28305891 303.71694109 -361 301 C-363.35671703 299.2934118 -365.26165016 298.94243696 -368.125 298.3125 C-378.11185998 300.08436225 -386.98265865 312.56167764 -392.7890625 320.421875 C-395.54426128 324.46645253 -397.94963195 328.55753589 -400 333 C-413.0339317 317.78748605 -417.04723381 299.68411706 -416 280 C-413.87105318 257.66662796 -405.72869098 238.00066991 -391 221 C-390.57589844 222.24394531 -390.15179688 223.48789063 -389.71484375 224.76953125 C-379.9722282 252.7022955 -363.05735933 267.10684955 -337.89599609 281.5090332 C-330.04134895 286.0809152 -323.0719414 290.65949121 -319.125 299.125 C-318.54105469 300.33542969 -318.54105469 300.33542969 -317.9453125 301.5703125 C-314.08335038 311.49651265 -314.6134235 324.83938106 -318.7109375 334.58203125 C-320.05651778 337.10601365 -321.58501479 339.36362254 -323.25 341.6875 C-325.26946589 344.56511043 -326.46632464 346.6486942 -326.6875 350.1875 C-325.8152857 355.02432477 -324.47629268 356.60647619 -321 360 C-317.77259949 361.61370025 -314.49893054 361.43900439 -311 361 C-303.29437472 357.60952488 -299.92409748 349.43345971 -296.75 342.0625 C-290.46609239 325.04358356 -290.92786575 305.60231898 -298.28515625 289.12109375 C-305.99240188 273.68513384 -318.54071292 264.93214265 -333.28710938 257.03125 C-348.32711086 248.78960789 -359.49039158 238.852384 -365.25 222.4375 C-369.02671021 205.12757821 -365.20780587 188.37723815 -355.7109375 173.45703125 C-337.55570746 147.3847945 -309.15882262 129.94928069 -278 124 C-258.45413693 121.03413669 -235.96319045 121.23098685 -219.3125 133.0625 C-210.5394635 140.44780164 -203.22282748 150.34608352 -202 162 C-201.87301537 167.01768131 -201.95141964 172.0310493 -202.23413086 177.04223633 C-202.52621759 183.00361591 -202.52621759 183.00361591 -199.68359375 188.125 C-195.35020973 191.15269189 -191.18271002 191.6896757 -186 191 C-182.12085974 189.01732831 -180.76283206 186.89015334 -179.39453125 182.90234375 C-177.91142225 178.21172289 -177.45970664 173.9013262 -177.5 169 C-177.50749268 167.77603516 -177.50749268 167.77603516 -177.51513672 166.52734375 C-178.01204119 148.78956757 -185.48990608 133.40443434 -198 121 C-200.05397471 119.10649206 -202.13184609 117.26612889 -204.2734375 115.47265625 C-205.93687488 114.05384201 -207.47587289 112.56620423 -209 111 C-207.9275 110.87625 -206.855 110.7525 -205.75 110.625 C-203.32511559 110.33552418 -200.96086156 109.99175702 -198.5703125 109.48828125 C-166.14821203 102.8628955 -130.2688682 111.76758751 -102.54296875 129.12109375 C-87.81180943 138.92439195 -72.72359035 151.8242246 -69 170 C-67.93580733 181.05208426 -69.11146466 189.68113008 -75 199.25 C-79.95948771 204.51006272 -86.68970815 207.54672352 -93.765625 208.515625 C-104.25336443 208.81284838 -112.82202791 206.8375704 -120.59765625 199.57421875 C-124.74006278 194.9241078 -125.71426971 189.85730292 -126.3125 183.875 C-126.01852272 180.22968171 -125.31528336 177.92274688 -124 174.5625 C-122.10995413 169.65914257 -121.36875157 166.2303441 -122 161 C-123.63080792 157.33068217 -125.45433589 154.9165752 -129 153 C-132.79577202 151.9421619 -135.23454751 151.26621111 -138.8984375 152.7890625 C-145.88675835 157.76328214 -148.01242193 167.06210967 -149.6171875 175.0859375 C-151.30185706 187.91005475 -149.48672419 199.65268581 -142.0625 210.40234375 C-133.42538017 221.28053445 -122.30194069 226.52053495 -109.625 231.5625 C-95.57736955 237.31942017 -85.5037878 249.72391569 -79.48828125 263.44921875 C-73.70260005 278.25326837 -71.972253 296.06842896 -77.73828125 311.2421875 C-78.15464844 312.15226563 -78.57101562 313.06234375 -79 314 C-79.44730469 314.99257813 -79.89460938 315.98515625 -80.35546875 317.0078125 C-85.59635688 327.54579131 -93.10713614 332.77380692 -104 337 C-135.89145806 346.58292945 -180.00814636 346.48520844 -209.8828125 330.44140625 C-215.8070956 326.40808436 -219.91265026 320.8418686 -222 314 C-222.61048133 309.580646 -222.90555042 305.14691158 -223.1015625 300.69140625 C-223.38070809 296.80540579 -223.91279789 295.10508972 -226.4375 292.0625 C-230.00716052 289.18935861 -232.25438021 288.59772547 -236.89453125 288.6484375 C-240.6972357 289.28339743 -242.40085863 291.21067756 -245 294 C-248.46205415 303.05622702 -246.44493845 316.27567536 -243.328125 325.06640625 C-241.14588766 329.88658343 -238.37048138 333.93813782 -235 338 C-234.49984375 338.62390625 -233.9996875 339.2478125 -233.484375 339.890625 C-217.18805739 358.16225384 -187.63913549 362.37421775 -164.59960938 363.86376953 C-157.05972002 364.25889146 -149.54500838 364.17740684 -142 364 C-140.40865234 363.97099609 -140.40865234 363.97099609 -138.78515625 363.94140625 C-114.85088103 363.7697142 -114.85088103 363.7697142 -91.8125 358 C-86.10329526 356.09040322 -81.19557128 358.64518618 -75.8515625 360.6484375 C-55.71347827 368.05288568 -30.11195737 364.81353423 -11 356 C-1.99088997 351.74037351 5.58996883 346.65390554 13 340 C13.70769531 339.38640625 14.41539062 338.7728125 15.14453125 338.140625 C21.42028629 332.34762034 25.66417305 325.28075496 30 318 C30.43441406 317.278125 30.86882812 316.55625 31.31640625 315.8125 C39.1402073 301.57625025 41.42265828 282.59357228 37.9375 266.75 C34.42120076 255.01819978 28.96355521 246.19095434 20.453125 237.62109375 C17.59080616 234.56278811 15.19318386 231.98606567 14.77734375 227.7109375 C14.85662109 226.55464844 14.85662109 226.55464844 14.9375 225.375 C15.50098196 204.15051295 4.02536951 184.18158277 -10 169 C-12.53723661 166.47271334 -15.17237064 164.19569704 -18 162 C-18.70125 161.45085937 -19.4025 160.90171875 -20.125 160.3359375 C-25.33737777 156.47948233 -30.86062319 153.31166941 -36.5625 150.25 C-37.25851318 149.87311035 -37.95452637 149.4962207 -38.67163086 149.10791016 C-42.30802742 147.20039014 -45.67792123 145.78268406 -49.65234375 144.734375 C-54.19571273 143.30662668 -55.97334974 141.01367175 -58.56005859 137.12695312 C-66.82325432 124.92129677 -79.78787816 115.8550957 -92 108 C-93.02609375 107.33484375 -94.0521875 106.6696875 -95.109375 105.984375 C-118.27034572 91.78068578 -145.00577956 84.9171694 -172 84 C-172.77085937 83.97131836 -173.54171875 83.94263672 -174.3359375 83.91308594 C-192.8611129 83.30532478 -212.28575205 85.46600939 -229.04125977 94.04516602 Z M-295.9296875 183.52734375 C-305.90246992 195.43823294 -309.29744106 208.66496749 -308 224 C-306.31740331 234.02547192 -300.99275009 242.01030223 -293.21484375 248.4296875 C-281.29054336 256.88395338 -270.00437363 256.90424606 -256.0625 254.5625 C-254.29588429 254.28447258 -252.52895816 254.00840999 -250.76171875 253.734375 C-249.93075684 253.60482422 -249.09979492 253.47527344 -248.24365234 253.34179688 C-227.42147211 250.16975636 -206.33599557 251.16938785 -187 260 C-186.07960938 260.40734375 -185.15921875 260.8146875 -184.2109375 261.234375 C-169.51985429 268.43173565 -158.08445948 281.52185946 -151.5546875 296.30078125 C-149.44625642 299.96139903 -146.96498337 302.27306974 -142.97265625 303.75 C-138.93445625 304.27851697 -137.360609 304.19366039 -133.625 302.1875 C-130.13495724 299.27913103 -128.43180646 297.74989496 -127.9140625 293.109375 C-128.47656264 279.3025533 -141.52349854 266.01003435 -151 257 C-171.5191593 238.52503149 -197.28124963 227.78969372 -225 227.8125 C-226.01658691 227.81330566 -227.03317383 227.81411133 -228.08056641 227.81494141 C-237.74190836 227.8929665 -247.11360835 228.70047079 -256.5 231.125 C-260.53569049 232.07819166 -264.55529343 232.28590931 -268.6875 232.375 C-270.54955078 232.41753906 -270.54955078 232.41753906 -272.44921875 232.4609375 C-276.65858635 231.91450694 -278.75482618 230.69716356 -282 228 C-284.59107771 224.12153148 -285.68241366 218.89331415 -285.47265625 214.26953125 C-283.86491437 206.54971281 -279.64042403 199.48375991 -273.48828125 194.5859375 C-269.2205048 191.86581625 -264.67596233 189.76024672 -260.07421875 187.67578125 C-257.02498397 186.01361896 -255.62880697 185.02329434 -254 182 C-253.17942952 178.23905196 -253.16130567 174.54885313 -255.01953125 171.1171875 C-257.15420298 168.44723555 -258.73994747 167.08668418 -262 166 C-275.97930641 164.88165549 -286.73266038 173.91826344 -295.9296875 183.52734375 Z M138 252 C140.70420324 260.19891408 148.02076058 265.18154835 155.41308594 269.07666016 C162.14246909 272.45923951 167.77338062 274.14788048 175.3125 274.125 C176.17488281 274.12757813 177.03726563 274.13015625 177.92578125 274.1328125 C179.99027095 274.22988841 179.99027095 274.22988841 181 273 C182.7634375 272.8453125 182.7634375 272.8453125 184.5625 272.6875 C189.09289309 272.16413329 193.37369284 270.8485954 197 268 C199.13704493 262.96582715 197.35573603 257.05602474 196 252 C192.69562012 244.37046047 188.41328246 239.40373192 180.8359375 236.0390625 C163.66414969 229.60701827 148.59814054 238.68438752 138 252 Z M-338.62133789 580.09179688 C-340.42309227 580.121828 -340.42309227 580.121828 -342.26124573 580.15246582 C-343.5685112 580.1743396 -344.87577667 580.19621338 -346.22265625 580.21875 C-347.56644173 580.2411775 -348.91022734 580.26359765 -350.25401306 580.28601074 C-353.79680502 580.34512102 -357.3395953 580.40433135 -360.88238525 580.46356201 C-364.49515688 580.52394513 -368.10793006 580.58423432 -371.72070312 580.64453125 C-378.81380363 580.76292853 -385.90690236 580.88143143 -393 581 C-393.07037309 599.59475313 -393.12312583 618.18947888 -393.15543652 636.784338 C-393.17084393 645.42007296 -393.19181485 654.05572472 -393.22631836 662.69140625 C-393.25640985 670.22648099 -393.27561939 677.76149542 -393.28226548 685.29662859 C-393.28614464 689.27897851 -393.29512996 693.26115603 -393.31719017 697.24345016 C-393.5085079 720.78014969 -393.5085079 720.78014969 -390 744 C-389.34 744 -388.68 744 -388 744 C-387.87882813 744.61488281 -387.75765625 745.22976563 -387.6328125 745.86328125 C-387.46523438 746.67152344 -387.29765625 747.47976563 -387.125 748.3125 C-386.96257812 749.11300781 -386.80015625 749.91351562 -386.6328125 750.73828125 C-386.05521001 753.25301118 -386.05521001 753.25301118 -384 756 C-383.34 756 -382.68 756 -382 756 C-382.33 756.99 -382.66 757.98 -383 759 C-382.34 759.33 -381.68 759.66 -381 760 C-380.525625 760.825 -380.05125 761.65 -379.5625 762.5 C-378.18680459 765.29155483 -378.18680459 765.29155483 -375 766 C-374.3142116 767.32359983 -373.65018023 768.65855008 -373 770 C-371.24337756 771.93271222 -371.24337756 771.93271222 -369.1875 773.6875 C-368.52105469 774.28949219 -367.85460937 774.89148438 -367.16796875 775.51171875 C-364.75216718 777.17013389 -362.88196185 777.62277986 -360 778 C-360 778.66 -360 779.32 -360 780 C-358.54293274 780.50367757 -357.08429904 781.00282556 -355.625 781.5 C-354.81289063 781.7784375 -354.00078125 782.056875 -353.1640625 782.34375 C-351.05790758 783.09673305 -351.05790758 783.09673305 -349 783 C-348.67 783.66 -348.34 784.32 -348 785 C-346.68 784.67 -345.36 784.34 -344 784 C-344 784.66 -344 785.32 -344 786 C-332.87915474 788.55062339 -321.77692668 788.29161415 -310.43359375 788.265625 C-308.3471726 788.266975 -306.26075175 788.26891831 -304.17433167 788.27142334 C-299.81972229 788.27435818 -295.46519543 788.27012957 -291.1105957 788.26074219 C-285.55402536 788.24934159 -279.99764816 788.25592151 -274.44108486 788.26788712 C-270.13860135 788.27514408 -265.83616299 788.27280034 -261.53367805 788.26763153 C-259.48573852 788.266306 -257.43779476 788.2679039 -255.38986015 788.27259064 C-240.57513081 788.40079211 -240.57513081 788.40079211 -226 786 C-226 785.34 -226 784.68 -226 784 C-224.68 784.33 -223.36 784.66 -222 785 C-222 784.34 -222 783.68 -222 783 C-221.113125 782.87625 -220.22625 782.7525 -219.3125 782.625 C-216.29612498 782.05587264 -213.79673946 781.23385564 -211 780 C-211 779.34 -211 778.68 -211 778 C-208.36 778 -205.72 778 -203 778 C-203 778.66 -203 779.32 -203 780 C-201.56445975 780.50559908 -200.1264798 781.0042749 -198.6875 781.5 C-197.88699219 781.7784375 -197.08648437 782.056875 -196.26171875 782.34375 C-193.91230578 783.13933107 -193.91230578 783.13933107 -191 783 C-190.67 783.66 -190.34 784.32 -190 785 C-189.01 784.67 -188.02 784.34 -187 784 C-187 784.66 -187 785.32 -187 786 C-178.19295419 787.7798869 -169.75647978 788.27800163 -160.78613281 788.22705078 C-159.40507007 788.22648511 -158.02400673 788.22680627 -156.64294434 788.22793579 C-152.9329753 788.22850421 -149.22313842 788.21683368 -145.51319981 788.20278788 C-141.62149812 788.19019437 -137.72979265 788.18910328 -133.83807373 788.18673706 C-126.48608968 788.18054742 -119.13416586 788.16417104 -111.7822082 788.14403808 C-103.40483058 788.12160028 -95.02744993 788.11066593 -86.65004969 788.10064721 C-69.43332574 788.07980227 -52.21668467 788.04315791 -35 788 C-35 773.81 -35 759.62 -35 745 C-39.89622192 744.96241577 -39.89622192 744.96241577 -44.89135742 744.92407227 C-55.71197248 744.84035647 -66.5325431 744.75170291 -77.35309887 744.66066074 C-83.90945547 744.60564679 -90.46581666 744.5522629 -97.0222168 744.50268555 C-103.35703947 744.45472236 -109.69181247 744.40237116 -116.02657509 744.34705925 C-118.43568995 744.32677949 -120.84481835 744.30804414 -123.25395775 744.29092598 C-147.49465111 744.11674166 -147.49465111 744.11674166 -158 743 C-158 742.34 -158 741.68 -158 741 C-159.0725 740.608125 -160.145 740.21625 -161.25 739.8125 C-165.96438924 737.78388402 -168.17573753 734.85459056 -170.25 730.1875 C-170.4975 729.465625 -170.745 728.74375 -171 728 C-171.66 728 -172.32 728 -173 728 C-172.67 726.35 -172.34 724.7 -172 723 C-172.66 723 -173.32 723 -174 723 C-173.505 680.925 -173.505 680.925 -173 638 C-172.34 638 -171.68 638 -171 638 C-170.76925781 637.46890625 -170.53851563 636.9378125 -170.30078125 636.390625 C-167.65869184 630.66783845 -165.10258691 627.37892752 -159.1875 624.75 C-158.465625 624.5025 -157.74375 624.255 -157 624 C-157 623.34 -157 622.68 -157 622 C-154.03 622.495 -154.03 622.495 -151 623 C-151 622.34 -151 621.68 -151 621 C-150.00885696 621.00666183 -149.01771393 621.01332367 -147.99653625 621.02018738 C-138.65337735 621.08101735 -129.31025865 621.12598171 -119.9669466 621.15543652 C-115.16350866 621.17108864 -110.36023066 621.1923187 -105.55688477 621.22631836 C-100.92088945 621.25892789 -96.28504792 621.27685643 -91.64894676 621.28463173 C-89.88071459 621.29017237 -88.11249077 621.30099191 -86.34432411 621.31719017 C-83.8664904 621.33898578 -81.38929119 621.34196606 -78.91137695 621.34057617 C-78.18129425 621.351362 -77.45121155 621.36214783 -76.69900513 621.3732605 C-72.31921546 621.34669863 -69.45377691 620.76178649 -66 618 C-66 617.34 -66 616.68 -66 616 C-65.42765625 615.7421875 -64.8553125 615.484375 -64.265625 615.21875 C-61.78871005 613.88634058 -59.8658834 612.34943882 -57.75 610.5 C-57.04359375 609.8915625 -56.3371875 609.283125 -55.609375 608.65625 C-53.76770496 607.14583632 -53.76770496 607.14583632 -54 605 C-53.401875 604.896875 -52.80375 604.79375 -52.1875 604.6875 C-49.68741714 603.90175967 -48.62464918 603.03081147 -47 601 C-47 600.34 -47 599.68 -47 599 C-46.38125 598.9175 -45.7625 598.835 -45.125 598.75 C-42.82530563 598.21868674 -42.82530563 598.21868674 -42.0625 596.0625 C-40.6022739 593.22794345 -38.92268537 593.11340395 -36 592 C-33.58333333 590.41666667 -33.58333333 590.41666667 -32 588 C-31.93250414 585.66764309 -31.92669511 583.33218156 -32 581 C-50.89784479 580.92985939 -69.79566309 580.87698708 -88.69361115 580.84456348 C-97.46863664 580.82910721 -106.24358117 580.80804143 -115.01855469 580.77368164 C-122.66853055 580.74374129 -130.31844776 580.72441599 -137.96848059 580.71773452 C-142.01757921 580.7138301 -146.06651006 580.70468013 -150.11555481 580.68280983 C-153.93060799 580.66237133 -157.74542507 580.65618098 -161.5605278 580.66067696 C-162.95688029 580.65985504 -164.35324109 580.65393324 -165.74954605 580.64238358 C-173.19100707 580.58387612 -179.22592214 580.77455136 -186 584 C-186 584.66 -186 585.32 -186 586 C-186.66 586 -187.32 586 -188 586 C-188 585.34 -188 584.68 -188 584 C-188.66 584 -189.32 584 -190 584 C-190 584.66 -190 585.32 -190 586 C-191.32 586 -192.64 586 -194 586 C-194.33 585.01 -194.66 584.02 -195 583 C-199.6851513 581.2460649 -203.8797611 580.75385705 -208.85327148 580.77294922 C-209.82040825 580.77251114 -209.82040825 580.77251114 -210.80708313 580.77206421 C-212.91189626 580.77344374 -215.01634342 580.78893872 -217.12109375 580.8046875 C-218.59082343 580.80842255 -220.06055562 580.8112672 -221.5302887 580.81326294 C-225.37884523 580.8208607 -229.22724829 580.84047553 -233.07574463 580.8626709 C-237.01076177 580.88321292 -240.94580395 580.89228245 -244.88085938 580.90234375 C-252.58730918 580.9237255 -260.293633 580.95781422 -268 581 C-266.62514468 582.54166642 -266.62514468 582.54166642 -265 584 C-264.34 584 -263.68 584 -263 584 C-263 584.66 -263 585.32 -263 586 C-261.07555852 587.62280488 -259.14754254 589.13303476 -257.125 590.625 C-255.45027983 591.87701436 -253.78062029 593.13233385 -252.12804031 594.41349506 C-250.61812054 595.53917636 -249.06275867 596.60501721 -247.48044968 597.62644482 C-240.56028948 602.41683174 -240.56028948 602.41683174 -239.08679962 606.58036232 C-238.75691072 609.61708527 -238.7382614 612.51241389 -238.83300781 615.56567383 C-238.82833496 616.70009415 -238.82366211 617.83451447 -238.81884766 619.00331116 C-238.81562749 622.73978168 -238.88358891 626.47126433 -238.953125 630.20703125 C-238.96671478 632.81481649 -238.97615259 635.42262638 -238.98162842 638.03044128 C-238.99999777 643.49239294 -239.05490662 648.95293677 -239.13574219 654.41430664 C-239.24916591 662.08370583 -239.29404761 669.75239361 -239.32631159 677.42250025 C-239.35435937 683.4132748 -239.40336228 689.40390376 -239.453125 695.39453125 C-239.46294655 696.65969889 -239.4727681 697.92486652 -239.48288727 699.22837257 C-239.5156928 702.83452927 -239.56251079 706.44021335 -239.61425781 710.04614258 C-239.62277771 711.09741333 -239.63129761 712.14868408 -239.64007568 713.23181152 C-239.75687851 719.99806645 -240.58745094 726.38272694 -242 733 C-242.99 733.33 -243.98 733.66 -245 734 C-245.1546875 734.9590625 -245.1546875 734.9590625 -245.3125 735.9375 C-245.539375 736.618125 -245.76625 737.29875 -246 738 C-248.9375 739.1875 -248.9375 739.1875 -252 740 C-252.66 740.33 -253.32 740.66 -254 741 C-254 741.66 -254 742.32 -254 743 C-263.78694107 743.85800642 -273.47788737 744.157964 -283.2956543 744.13037109 C-285.563707 744.12499714 -287.8315625 744.13036225 -290.09960938 744.13671875 C-298.77862068 744.14025356 -307.35243751 743.83096858 -316 743 C-316 742.34 -316 741.68 -316 741 C-317.3303125 740.443125 -317.3303125 740.443125 -318.6875 739.875 C-323.33469167 737.24451415 -326.2732809 734.18015731 -328 729 C-328.66 729 -329.32 729 -330 729 C-330.99261851 721.02737688 -331.16876355 713.13264202 -331.20532227 705.10498047 C-331.21492266 703.73406188 -331.22493393 702.36314613 -331.23532104 700.99223328 C-331.2621424 697.30081266 -331.28327385 693.60937955 -331.30332303 689.91791677 C-331.32532461 686.04886242 -331.35264337 682.17984555 -331.37937927 678.31082153 C-331.42911592 670.99777791 -331.47412461 663.68471327 -331.51740164 656.37162888 C-331.56693758 648.04021272 -331.62179458 639.70883419 -331.67708123 631.37745452 C-331.79060882 614.25167121 -331.89751045 597.12585285 -332 580 C-334.20711721 580 -336.41464385 580.05494186 -338.62133789 580.09179688 Z " fill="#1EB5FC" transform="translate(576,32)"/>
<path d="M0 0 C15.90831299 9.62102017 29.07051657 21.0925985 34.10546875 39.52734375 C35.62454593 46.32709893 36.1496175 53.3577192 36.69775391 60.29272461 C37.44966231 68.21852831 38.94506535 71.53885154 45.02734375 76.73046875 C45.65769531 77.21128906 46.28804687 77.69210937 46.9375 78.1875 C55.3987869 85.45143498 59.28916625 96.47920342 60.31640625 107.34765625 C60.86376173 123.29159173 54.75384943 136.32118818 44.640625 148.29296875 C31.80105491 161.45542744 13.68832978 168.94124854 -4.58325195 169.24853516 C-11.10403802 169.25281998 -17.54252635 168.9392689 -24 168 C-23.57589844 167.3915625 -23.15179688 166.783125 -22.71484375 166.15625 C-10.10626313 147.31265698 -3.40549511 125.24260822 -7.76171875 102.55078125 C-9.35728807 95.37897795 -11.59346615 88.52075787 -15 82 C-15.50402344 80.98421875 -16.00804687 79.9684375 -16.52734375 78.921875 C-19.86759859 72.40799935 -23.48786472 66.7408389 -28.30078125 61.21875 C-30.07903649 58.89679833 -31.04560034 56.75177162 -32 54 C-31.46632813 53.74347656 -30.93265625 53.48695313 -30.3828125 53.22265625 C-18.12022941 46.92164037 -8.17324339 37.13182946 -3.6875 23.9375 C-1.50258075 16.09804725 -0.73547965 8.08059884 0 0 Z " fill="#1DB3F9" transform="translate(532,205)"/>
<path d="M0 0 C-2.44598045 2.5478963 -5.01020468 4.88962178 -7.6875 7.1875 C-9.12932331 8.4534262 -10.56664557 9.72449277 -12 11 C-12.71542969 11.63550781 -13.43085938 12.27101563 -14.16796875 12.92578125 C-20.58051738 18.952442 -25.23501874 25.79162694 -29.87597656 33.20556641 C-30.84667518 34.75522644 -31.83930859 36.29110661 -32.8359375 37.82421875 C-37.54612484 45.39811154 -40.9196623 53.47931049 -44.2734375 61.72851562 C-50.37638464 76.38950429 -50.37638464 76.38950429 -57.375 79.5 C-58.24125 79.665 -59.1075 79.83 -60 80 C-61.48046875 78.7421875 -61.48046875 78.7421875 -63 77 C-63.41810129 71.81554403 -62.90525923 67.23092254 -62 62.125 C-59.86557843 48.8699327 -60.26856253 36.39517641 -64.02734375 23.515625 C-65.00766008 19.97231297 -65.55655471 16.64091926 -66 13 C-57.36341012 9.2601927 -48.69889951 5.59256021 -40 2 C-38.79730469 1.49919922 -38.79730469 1.49919922 -37.5703125 0.98828125 C-25.79099159 -3.81822326 -11.77413407 -6.01232378 0 0 Z " fill="#1DB1F9" transform="translate(342,432)"/>
<path d="M0 0 C1.43859375 -0.00580078 1.43859375 -0.00580078 2.90625 -0.01171875 C8.04605362 -0.00465858 12.93551096 0.23871442 18 1.125 C18 1.455 18 1.785 18 2.125 C17.28457031 2.11976318 16.56914062 2.11452637 15.83203125 2.10913086 C12.55469662 2.08819704 9.27737613 2.07528798 6 2.0625 C4.87464844 2.05412109 3.74929688 2.04574219 2.58984375 2.03710938 C-7.46084631 1.63506391 -7.46084631 1.63506391 -17 4.125 C-18.67654729 3.84557545 -20.34608154 3.51671753 -22 3.125 C-15.4744177 -0.79034938 -7.34170198 -0.02960364 0 0 Z " fill="#2692FA" transform="translate(398,138.875)"/>
<path d="M0 0 C0.66 0 1.32 0 2 0 C2.56601249 18.25914362 2.56601249 18.25914362 -1 26 C-1.5878125 27.5159375 -1.5878125 27.5159375 -2.1875 29.0625 C-2.455625 29.701875 -2.72375 30.34125 -3 31 C-4.24783928 27.25648217 -3.56579352 25.49814533 -2.625 21.6875 C-0.96957234 14.43838985 -0.3278995 7.43992665 0 0 Z " fill="#2298F6" transform="translate(283,344)"/>
<path d="M0 0 C-3.75 2 -3.75 2 -6 2 C-6.33 2.99 -6.66 3.98 -7 5 C-8.45599609 4.76990234 -8.45599609 4.76990234 -9.94140625 4.53515625 C-14.26219894 3.91790015 -18.58141318 3.66519605 -22.9375 3.4375 C-23.71673828 3.39431641 -24.49597656 3.35113281 -25.29882812 3.30664062 C-27.19907117 3.20171923 -29.09951669 3.1004755 -31 3 C-31 2.67 -31 2.34 -31 2 C-26.77107814 1.66351188 -22.54182647 1.33136068 -18.3125 1 C-16.51522461 0.85691406 -16.51522461 0.85691406 -14.68164062 0.7109375 C-13.52470703 0.62070312 -12.36777344 0.53046875 -11.17578125 0.4375 C-10.11270752 0.35371094 -9.04963379 0.26992188 -7.9543457 0.18359375 C-5.29235178 0.0181678 -2.66602163 -0.03448371 0 0 Z " fill="#2493FA" transform="translate(548,394)"/>
<path d="M0 0 C6.15234375 0.5859375 6.15234375 0.5859375 8 1 C8.33 1.66 8.66 2.32 9 3 C6.36 4.65 3.72 6.3 1 8 C0.67 6.68 0.34 5.36 0 4 C0.66 3.34 1.32 2.68 2 2 C1.34 1.34 0.68 0.68 0 0 Z " fill="#229EFA" transform="translate(333,430)"/>
<path d="M0 0 C0.53625 0.226875 1.0725 0.45375 1.625 0.6875 C-3.125 5.5625 -3.125 5.5625 -5.375 6.6875 C-6.365 6.0275 -7.355 5.3675 -8.375 4.6875 C-8.375 4.0275 -8.375 3.3675 -8.375 2.6875 C-2.95961538 -0.38942308 -2.95961538 -0.38942308 0 0 Z " fill="#20A3F8" transform="translate(508.375,256.3125)"/>
<path d="M0 0 C-0.66 1.98 -1.32 3.96 -2 6 C-2.99 5.34 -3.98 4.68 -5 4 C-5 3.34 -5 2.68 -5 2 C-7.97 2 -10.94 2 -14 2 C-14 1.67 -14 1.34 -14 1 C-12.41693353 0.83081732 -10.83353281 0.66476064 -9.25 0.5 C-8.36828125 0.4071875 -7.4865625 0.314375 -6.578125 0.21875 C-4 0 -4 0 0 0 Z " fill="#1EADF2" transform="translate(927,523)"/>
<path d="M0 0 C0.33 1.32 0.66 2.64 1 4 C-1.31 5.98 -3.62 7.96 -6 10 C-6 6.41087588 -5.33563446 5.89142971 -3 3.3125 C-2.443125 2.68988281 -1.88625 2.06726563 -1.3125 1.42578125 C-0.879375 0.95527344 -0.44625 0.48476563 0 0 Z " fill="#20A0F7" transform="translate(182,256)"/>
<path d="M0 0 C0.33 0.66 0.66 1.32 1 2 C-1.45614035 7 -1.45614035 7 -3 9 C-3.99 9.33 -4.98 9.66 -6 10 C-4.6302836 6.00499382 -2.74277578 3.19990508 0 0 Z " fill="#209BF7" transform="translate(334,470)"/>
<path d="M0 0 C2.02744797 3.04117196 3.06650449 5.48143999 4 9 C3.67 10.32 3.34 11.64 3 13 C2.34 10.03 1.68 7.06 1 4 C0.01 4 -0.98 4 -2 4 C-1.34 2.68 -0.68 1.36 0 0 Z " fill="#2395F6" transform="translate(185,252)"/>
<path d="M0 0 C0.33 0 0.66 0 1 0 C0.88557539 1.60495567 0.75805306 3.20898119 0.625 4.8125 C0.55539062 5.70582031 0.48578125 6.59914063 0.4140625 7.51953125 C0 10 0 10 -2 13 C-2.05416188 11.39620659 -2.09286638 9.79188594 -2.125 8.1875 C-2.14820313 7.29417969 -2.17140625 6.40085937 -2.1953125 5.48046875 C-2 3 -2 3 0 0 Z " fill="#2398F9" transform="translate(258,479)"/>
<path d="M0 0 C0.33 0.66 0.66 1.32 1 2 C-0.25 5.5625 -0.25 5.5625 -2 9 C-2.99 9.33 -3.98 9.66 -5 10 C-3.66511872 6.40608886 -2.03977277 3.24509304 0 0 Z " fill="#2299F7" transform="translate(607,347)"/>
<path d="M0 0 C3.05882701 1.52941351 3.68951234 3.94219546 5 7 C4.67 7.66 4.34 8.32 4 9 C2.02 6.69 0.04 4.38 -2 2 C-1.34 1.34 -0.68 0.68 0 0 Z " fill="#1FA2F7" transform="translate(190,268)"/>
<path d="M0 0 C0.33 0.99 0.66 1.98 1 3 C0.00390625 4.82421875 0.00390625 4.82421875 -1.4375 6.6875 C-1.91058594 7.31011719 -2.38367188 7.93273437 -2.87109375 8.57421875 C-3.24363281 9.04472656 -3.61617187 9.51523437 -4 10 C-4.33 9.34 -4.66 8.68 -5 8 C-4.0625 5.875 -4.0625 5.875 -3 4 C-2.34 4 -1.68 4 -1 4 C-0.67 2.68 -0.34 1.36 0 0 Z " fill="#2495F8" transform="translate(257,364)"/>
<path d="M0 0 C0.99 0 1.98 0 3 0 C3 0.66 3 1.32 3 2 C2.01 2 1.02 2 0 2 C0 1.34 0 0.68 0 0 Z " fill="#1EB7FC" transform="translate(163,874)"/>
<path d="M0 0 C1.65 0 3.3 0 5 0 C4.01 0.66 3.02 1.32 2 2 C1.34 1.34 0.68 0.68 0 0 Z " fill="#20AFEF" transform="translate(722,574)"/>
<path d="M0 0 C4 1 4 1 4 1 Z " fill="#22B1F3" transform="translate(467,951)"/>
<path d="M0 0 C1 4 1 4 1 4 Z " fill="#1EB6FB" transform="translate(157,863)"/>
<path d="M0 0 C1 4 1 4 1 4 Z " fill="#1EAFEE" transform="translate(72,764)"/>
<path d="M0 0 C1 4 1 4 1 4 Z " fill="#20B1F0" transform="translate(74,763)"/>
<path d="M0 0 C0.66 0 1.32 0 2 0 C1.67 0.99 1.34 1.98 1 3 C0.67 2.01 0.34 1.02 0 0 Z " fill="#23B6FA" transform="translate(33,643)"/>
<path d="M0 0 C4 1 4 1 4 1 Z " fill="#1EADED" transform="translate(786,572)"/>
<path d="M0 0 C0.99 0 1.98 0 3 0 C2.67 0.66 2.34 1.32 2 2 C1.34 1.34 0.68 0.68 0 0 Z " fill="#20AFF0" transform="translate(752,572)"/>
<path d="M0 0 C4 1 4 1 4 1 Z " fill="#23B3FA" transform="translate(750,304)"/>
<path d="M0 0 C0.66 0 1.32 0 2 0 C1.67 0.66 1.34 1.32 1 2 C0.67 1.34 0.34 0.68 0 0 Z " fill="#21B3F7" transform="translate(540,949)"/>
<path d="M0 0 C3 1 3 1 3 1 Z " fill="#22B6F9" transform="translate(530,949)"/>
<path d="M0 0 C3 1 3 1 3 1 Z " fill="#20B2F5" transform="translate(496,949)"/>
<path d="M0 0 C3 1 3 1 3 1 Z " fill="#20B0F1" transform="translate(345,948)"/>
<path d="" fill="#20AEED" transform="translate(0,0)"/>
<path d="M0 0 C0.66 0.66 1.32 1.32 2 2 C1.34 2 0.68 2 0 2 C0 1.34 0 0.68 0 0 Z " fill="#1DAFED" transform="translate(88,786)"/>
<path d="" fill="#24B8FC" transform="translate(0,0)"/>
<path d="M0 0 C3 1 3 1 3 1 Z " fill="#21B1EF" transform="translate(735,573)"/>
<path d="M0 0 C3 1 3 1 3 1 Z " fill="#1FAFED" transform="translate(799,572)"/>
<path d="M0 0 C3 1 3 1 3 1 Z " fill="#1FAFEE" transform="translate(795,572)"/>
<path d="" fill="#23B7FC" transform="translate(0,0)"/>
<path d="M0 0 C0.33 0.66 0.66 1.32 1 2 C0.34 1.67 -0.32 1.34 -1 1 C-0.67 0.67 -0.34 0.34 0 0 Z " fill="#1EACEE" transform="translate(922,521)"/>
<path d="M0 0 C0.66 0.66 1.32 1.32 2 2 C1.34 2 0.68 2 0 2 C0 1.34 0 0.68 0 0 Z " fill="#21B2F7" transform="translate(886,518)"/>
<path d="" fill="#24B5FC" transform="translate(0,0)"/>
<path d="" fill="#1EABED" transform="translate(0,0)"/>
<path d="M0 0 C3 1 3 1 3 1 Z " fill="#24B5FC" transform="translate(745,267)"/>
<path d="M0 0 C0.99 0.495 0.99 0.495 2 1 C1.01 1.495 1.01 1.495 0 2 C0 1.34 0 0.68 0 0 Z " fill="#1FAEF0" transform="translate(686,136)"/>
<path d="M0 0 C3 1 3 1 3 1 Z " fill="#22B3FA" transform="translate(461,74)"/>
<path d="M0 0 C2 1 2 1 2 1 Z " fill="#21B1F1" transform="translate(668,982)"/>
<path d="" fill="#21B1F2" transform="translate(0,0)"/>
<path d="" fill="#22B3F5" transform="translate(0,0)"/>
<path d="M0 0 C2 1 2 1 2 1 Z " fill="#20B2F4" transform="translate(478,951)"/>
<path d="M0 0 C2 1 2 1 2 1 Z " fill="#20B1F7" transform="translate(548,950)"/>
<path d="M0 0 C2 1 2 1 2 1 Z " fill="#21B3F6" transform="translate(476,950)"/>
<path d="" fill="#20AEEE" transform="translate(0,0)"/>
<path d="M0 0 C2 1 2 1 2 1 Z " fill="#21B2F7" transform="translate(543,949)"/>
<path d="M0 0 C2 1 2 1 2 1 Z " fill="#21B1F5" transform="translate(535,949)"/>
<path d="" fill="#1FACEB" transform="translate(0,0)"/>
<path d="M0 0 C2 1 2 1 2 1 Z " fill="#23B5FB" transform="translate(599,932)"/>
<path d="" fill="#1FABEB" transform="translate(0,0)"/>
<path d="" fill="#1FA7E8" transform="translate(0,0)"/>
<path d="" fill="#1EACEB" transform="translate(0,0)"/>
<path d="" fill="#1FB7FA" transform="translate(0,0)"/>
<path d="M0 0 C2 1 2 1 2 1 Z " fill="#1EADEA" transform="translate(123,831)"/>
<path d="" fill="#20B1F4" transform="translate(0,0)"/>
<path d="M0 0 C2 1 2 1 2 1 Z " fill="#22B5F5" transform="translate(57,732)"/>
<path d="" fill="#21B3F7" transform="translate(0,0)"/>
<path d="" fill="#24B7FB" transform="translate(0,0)"/>
<path d="M0 0 C2 1 2 1 2 1 Z " fill="#23B7FA" transform="translate(34,651)"/>
<path d="" fill="#23B6FA" transform="translate(0,0)"/>
<path d="M0 0 C2 1 2 1 2 1 Z " fill="#1FAEF2" transform="translate(675,583)"/>
<path d="M0 0 C2 1 2 1 2 1 Z " fill="#21B0F4" transform="translate(680,582)"/>
<path d="M0 0 C2 1 2 1 2 1 Z " fill="#1FAFF1" transform="translate(714,575)"/>
<path d="M0 0 C2 1 2 1 2 1 Z " fill="#20AEEF" transform="translate(792,572)"/>
<path d="M0 0 C2 1 2 1 2 1 Z " fill="#1DABEC" transform="translate(783,572)"/>
<path d="M0 0 C2 1 2 1 2 1 Z " fill="#20ADED" transform="translate(766,572)"/>
<path d="M0 0 C2 1 2 1 2 1 Z " fill="#1EA9E8" transform="translate(822,571)"/>
<path d="M0 0 C2 1 2 1 2 1 Z " fill="#1FAAE5" transform="translate(885,559)"/>
<path d="" fill="#23B7FC" transform="translate(0,0)"/>
<path d="" fill="#23B6FC" transform="translate(0,0)"/>
<path d="M0 0 C2 1 2 1 2 1 Z " fill="#1DA5E2" transform="translate(902,551)"/>
<path d="M0 0 C2 1 2 1 2 1 Z " fill="#23B5FB" transform="translate(858,521)"/>
<path d="" fill="#21B4F9" transform="translate(0,0)"/>
<path d="M0 0 C2 1 2 1 2 1 Z " fill="#20AFF3" transform="translate(908,511)"/>
<path d="" fill="#1FB3F4" transform="translate(0,0)"/>
<path d="" fill="#24B8FD" transform="translate(0,0)"/>
<path d="" fill="#20B0F7" transform="translate(0,0)"/>
<path d="M0 0 C2 1 2 1 2 1 Z " fill="#20AFF1" transform="translate(936,336)"/>
<path d="" fill="#23B4F8" transform="translate(0,0)"/>
<path d="M0 0 C2 1 2 1 2 1 Z " fill="#24B6FA" transform="translate(758,271)"/>
<path d="" fill="#25B7FB" transform="translate(0,0)"/>
<path d="" fill="#23AFEF" transform="translate(0,0)"/>
<path d="" fill="#20AFF4" transform="translate(0,0)"/>
<path d="" fill="#21B0F0" transform="translate(0,0)"/>
<path d="M0 0 C2 1 2 1 2 1 Z " fill="#1FABEC" transform="translate(106,211)"/>
<path d="" fill="#1DAFEF" transform="translate(0,0)"/>
<path d="" fill="#1FADEF" transform="translate(0,0)"/>
<path d="M0 0 C2 1 2 1 2 1 Z " fill="#1EAAE9" transform="translate(188,132)"/>
<path d="M0 0 C2 1 2 1 2 1 Z " fill="#21B0F2" transform="translate(304,80)"/>
<path d="M0 0 C2 1 2 1 2 1 Z " fill="#22B2F9" transform="translate(454,73)"/>
<path d="M0 0 C2 1 2 1 2 1 Z " fill="#23B0F5" transform="translate(346,72)"/>
<path d="M0 0 C2 1 2 1 2 1 Z " fill="#20B1F8" transform="translate(420,69)"/>
<path d="M0 0 C2 1 2 1 2 1 Z " fill="#23B0F5" transform="translate(548,33)"/>
<path d="M0 0 C2 1 2 1 2 1 Z " fill="#24B2F6" transform="translate(552,32)"/>
<path d="" fill="#128ABE" transform="translate(0,0)"/>
<path d="" fill="#1288C0" transform="translate(0,0)"/>
<path d="" fill="#1B9ED7" transform="translate(0,0)"/>
<path d="" fill="#003346" transform="translate(0,0)"/>
<path d="" fill="#000201" transform="translate(0,0)"/>
<path d="" fill="#20AFEF" transform="translate(0,0)"/>
<path d="" fill="#19A2DF" transform="translate(0,0)"/>
<path d="" fill="#20B1F0" transform="translate(0,0)"/>
<path d="" fill="#001115" transform="translate(0,0)"/>
<path d="" fill="#21B5F8" transform="translate(0,0)"/>
<path d="" fill="#1FB0F0" transform="translate(0,0)"/>
<path d="" fill="#1CA8E8" transform="translate(0,0)"/>
<path d="" fill="#22B4F1" transform="translate(0,0)"/>
<path d="" fill="#22B5F5" transform="translate(0,0)"/>
<path d="" fill="#23B7FA" transform="translate(0,0)"/>
<path d="" fill="#21ACF0" transform="translate(0,0)"/>
<path d="" fill="#24B5F9" transform="translate(0,0)"/>
<path d="" fill="#1FB5F8" transform="translate(0,0)"/>
<path d="" fill="#23B5FA" transform="translate(0,0)"/>
<path d="" fill="#1FA1DE" transform="translate(0,0)"/>
<path d="" fill="#20ACF1" transform="translate(0,0)"/>
<path d="" fill="#22B4F7" transform="translate(0,0)"/>
<path d="" fill="#23B3F7" transform="translate(0,0)"/>
<path d="" fill="#20B2F5" transform="translate(0,0)"/>
<path d="" fill="#21B0F4" transform="translate(0,0)"/>
<path d="" fill="#20AFF0" transform="translate(0,0)"/>
<path d="" fill="#1FA9E8" transform="translate(0,0)"/>
<path d="" fill="#20B4F9" transform="translate(0,0)"/>
<path d="" fill="#24B3F7" transform="translate(0,0)"/>
<path d="" fill="#24B2F5" transform="translate(0,0)"/>
<path d="" fill="#1FB0F4" transform="translate(0,0)"/>
<path d="" fill="#22B3F5" transform="translate(0,0)"/>
<path d="" fill="#22B0F1" transform="translate(0,0)"/>
<path d="" fill="#20AFEF" transform="translate(0,0)"/>
<path d="" fill="#20AFEE" transform="translate(0,0)"/>
<path d="" fill="#1FA9EA" transform="translate(0,0)"/>
<path d="" fill="#21B5F9" transform="translate(0,0)"/>
<path d="" fill="#22B1F7" transform="translate(0,0)"/>
<path d="" fill="#21B2F7" transform="translate(0,0)"/>
<path d="" fill="#20B3F7" transform="translate(0,0)"/>
<path d="" fill="#24B7FA" transform="translate(0,0)"/>
<path d="" fill="#24B6F8" transform="translate(0,0)"/>
<path d="" fill="#22B5F6" transform="translate(0,0)"/>
<path d="" fill="#20B1F2" transform="translate(0,0)"/>
<path d="" fill="#1FAFF0" transform="translate(0,0)"/>
<path d="" fill="#24B6F8" transform="translate(0,0)"/>
<path d="" fill="#1FADED" transform="translate(0,0)"/>
<path d="" fill="#1EADED" transform="translate(0,0)"/>
<path d="" fill="#1EACED" transform="translate(0,0)"/>
<path d="" fill="#199CDA" transform="translate(0,0)"/>
<path d="" fill="#000D14" transform="translate(0,0)"/>
<path d="" fill="#21B5FB" transform="translate(0,0)"/>
<path d="" fill="#1DABE9" transform="translate(0,0)"/>
<path d="" fill="#22B5FB" transform="translate(0,0)"/>
<path d="" fill="#23B3F9" transform="translate(0,0)"/>
<path d="" fill="#22B8FC" transform="translate(0,0)"/>
<path d="" fill="#22B4FA" transform="translate(0,0)"/>
<path d="" fill="#1FACEC" transform="translate(0,0)"/>
<path d="" fill="#27BAFC" transform="translate(0,0)"/>
<path d="" fill="#20ACEA" transform="translate(0,0)"/>
<path d="" fill="#22B6FC" transform="translate(0,0)"/>
<path d="" fill="#1FAFEF" transform="translate(0,0)"/>
<path d="" fill="#1DADED" transform="translate(0,0)"/>
<path d="" fill="#1BA8E8" transform="translate(0,0)"/>
<path d="" fill="#0C658E" transform="translate(0,0)"/>
<path d="" fill="#1EAEEA" transform="translate(0,0)"/>
<path d="" fill="#20AEEC" transform="translate(0,0)"/>
<path d="" fill="#1CAAE9" transform="translate(0,0)"/>
<path d="" fill="#002230" transform="translate(0,0)"/>
<path d="" fill="#1DACEB" transform="translate(0,0)"/>
<path d="" fill="#1DAFEE" transform="translate(0,0)"/>
<path d="" fill="#1EACEA" transform="translate(0,0)"/>
<path d="" fill="#1CA4E4" transform="translate(0,0)"/>
<path d="" fill="#1FABE8" transform="translate(0,0)"/>
<path d="" fill="#21B1EC" transform="translate(0,0)"/>
<path d="" fill="#1FABEA" transform="translate(0,0)"/>
<path d="" fill="#1EACED" transform="translate(0,0)"/>
<path d="" fill="#1FADEE" transform="translate(0,0)"/>
<path d="" fill="#001F29" transform="translate(0,0)"/>
<path d="" fill="#199DD9" transform="translate(0,0)"/>
<path d="" fill="#1CA8E8" transform="translate(0,0)"/>
<path d="" fill="#21ADEA" transform="translate(0,0)"/>
<path d="" fill="#22AAE9" transform="translate(0,0)"/>
<path d="" fill="#1EABE9" transform="translate(0,0)"/>
<path d="" fill="#1DA4E4" transform="translate(0,0)"/>
<path d="" fill="#20B8FB" transform="translate(0,0)"/>
<path d="" fill="#1FADED" transform="translate(0,0)"/>
<path d="" fill="#20A9E7" transform="translate(0,0)"/>
<path d="" fill="#20A9E8" transform="translate(0,0)"/>
<path d="" fill="#21B0F0" transform="translate(0,0)"/>
<path d="" fill="#1EAFEF" transform="translate(0,0)"/>
<path d="" fill="#1FABE9" transform="translate(0,0)"/>
<path d="" fill="#1EADEA" transform="translate(0,0)"/>
<path d="" fill="#1DABEB" transform="translate(0,0)"/>
<path d="" fill="#148EC6" transform="translate(0,0)"/>
<path d="" fill="#1EAAEC" transform="translate(0,0)"/>
<path d="" fill="#21AEEE" transform="translate(0,0)"/>
<path d="" fill="#1CABEE" transform="translate(0,0)"/>
<path d="" fill="#22B5FB" transform="translate(0,0)"/>
<path d="" fill="#1EB9FE" transform="translate(0,0)"/>
<path d="" fill="#2EBDFD" transform="translate(0,0)"/>
<path d="" fill="#1EABE9" transform="translate(0,0)"/>
<path d="" fill="#2FB9FB" transform="translate(0,0)"/>
<path d="" fill="#1BAEEB" transform="translate(0,0)"/>
<path d="" fill="#1FB6FC" transform="translate(0,0)"/>
<path d="" fill="#20B8FC" transform="translate(0,0)"/>
<path d="" fill="#1DACEC" transform="translate(0,0)"/>
<path d="" fill="#1FB5FB" transform="translate(0,0)"/>
<path d="" fill="#1FB6FC" transform="translate(0,0)"/>
<path d="" fill="#26B9FC" transform="translate(0,0)"/>
<path d="" fill="#1CADEB" transform="translate(0,0)"/>
<path d="" fill="#25B6FB" transform="translate(0,0)"/>
<path d="" fill="#1FB5FB" transform="translate(0,0)"/>
<path d="" fill="#1FB7FB" transform="translate(0,0)"/>
<path d="" fill="#1FB6FC" transform="translate(0,0)"/>
<path d="" fill="#1FB5FB" transform="translate(0,0)"/>
<path d="" fill="#1DB7FE" transform="translate(0,0)"/>
<path d="" fill="#000000" transform="translate(0,0)"/>
<path d="" fill="#1EABEB" transform="translate(0,0)"/>
<path d="" fill="#1EB5FC" transform="translate(0,0)"/>
<path d="" fill="#1EB5FC" transform="translate(0,0)"/>
<path d="" fill="#21B8FC" transform="translate(0,0)"/>
<path d="" fill="#20B9FD" transform="translate(0,0)"/>
<path d="" fill="#1FB7FD" transform="translate(0,0)"/>
<path d="" fill="#24B9FD" transform="translate(0,0)"/>
<path d="" fill="#1CB4FC" transform="translate(0,0)"/>
<path d="" fill="#1CADEC" transform="translate(0,0)"/>
<path d="" fill="#1FACED" transform="translate(0,0)"/>
<path d="" fill="#1EB8FD" transform="translate(0,0)"/>
<path d="" fill="#1FB7FD" transform="translate(0,0)"/>
<path d="" fill="#1CABEE" transform="translate(0,0)"/>
<path d="" fill="#29B8FB" transform="translate(0,0)"/>
<path d="" fill="#2DBCFE" transform="translate(0,0)"/>
<path d="" fill="#30BBFC" transform="translate(0,0)"/>
<path d="" fill="#1DA5E2" transform="translate(0,0)"/>
<path d="" fill="#26B9FC" transform="translate(0,0)"/>
<path d="" fill="#1FB7FC" transform="translate(0,0)"/>
<path d="" fill="#1FB6FB" transform="translate(0,0)"/>
<path d="" fill="#1FB6FB" transform="translate(0,0)"/>
<path d="" fill="#1DAEF2" transform="translate(0,0)"/>
<path d="" fill="#20B1F3" transform="translate(0,0)"/>
<path d="" fill="#20B7FB" transform="translate(0,0)"/>
<path d="" fill="#1EB6FC" transform="translate(0,0)"/>
<path d="" fill="#1FB7FC" transform="translate(0,0)"/>
<path d="" fill="#20B7FC" transform="translate(0,0)"/>
<path d="" fill="#31BBFB" transform="translate(0,0)"/>
<path d="" fill="#1EB8FD" transform="translate(0,0)"/>
<path d="" fill="#1DB8FD" transform="translate(0,0)"/>
<path d="" fill="#23B2F0" transform="translate(0,0)"/>
<path d="" fill="#20B8FC" transform="translate(0,0)"/>
<path d="" fill="#1FB6FC" transform="translate(0,0)"/>
<path d="" fill="#23BAFE" transform="translate(0,0)"/>
<path d="" fill="#1FAEF0" transform="translate(0,0)"/>
<path d="" fill="#1EB8FD" transform="translate(0,0)"/>
<path d="" fill="#20AFF1" transform="translate(0,0)"/>
<path d="" fill="#1FB5FB" transform="translate(0,0)"/>
<path d="" fill="#21ADF1" transform="translate(0,0)"/>
<path d="" fill="#20B8FC" transform="translate(0,0)"/>
<path d="" fill="#30BDFE" transform="translate(0,0)"/>
<path d="" fill="#22B2F5" transform="translate(0,0)"/>
<path d="" fill="#21ADEF" transform="translate(0,0)"/>
<path d="" fill="#21AFF3" transform="translate(0,0)"/>
<path d="" fill="#1FB1F4" transform="translate(0,0)"/>
<path d="" fill="#21B0F2" transform="translate(0,0)"/>
<path d="" fill="#21B3F7" transform="translate(0,0)"/>
<path d="" fill="#20B1F4" transform="translate(0,0)"/>
<path d="" fill="#22B1F2" transform="translate(0,0)"/>
<path d="" fill="#23B4F4" transform="translate(0,0)"/>
<path d="" fill="#21B1F6" transform="translate(0,0)"/>
<path d="" fill="#22B2F4" transform="translate(0,0)"/>
<path d="" fill="#22B3F6" transform="translate(0,0)"/>
<path d="" fill="#21B2F6" transform="translate(0,0)"/>
<path d="" fill="#22B1F7" transform="translate(0,0)"/>
<path d="" fill="#23B0F4" transform="translate(0,0)"/>
<path d="" fill="#22B1F4" transform="translate(0,0)"/>
<path d="" fill="#20B4F9" transform="translate(0,0)"/>
<path d="" fill="#22B3F8" transform="translate(0,0)"/>
<path d="" fill="#22B5F8" transform="translate(0,0)"/>
<path d="" fill="#22B8F8" transform="translate(0,0)"/>
<path d="" fill="#21B2F9" transform="translate(0,0)"/>
<path d="" fill="#24B6F8" transform="translate(0,0)"/>
<path d="" fill="#23B5F8" transform="translate(0,0)"/>
<path d="" fill="#21B6FA" transform="translate(0,0)"/>
<path d="" fill="#1EB6FD" transform="translate(0,0)"/>
<path d="" fill="#1FB7FC" transform="translate(0,0)"/>
<path d="" fill="#1FB7FC" transform="translate(0,0)"/>
<path d="" fill="#23B2F7" transform="translate(0,0)"/>
<path d="" fill="#1EB4FC" transform="translate(0,0)"/>
<path d="" fill="#24B8FB" transform="translate(0,0)"/>
<path d="" fill="#1EB4FC" transform="translate(0,0)"/>
<path d="" fill="#26BAFD" transform="translate(0,0)"/>
<path d="" fill="#22B3F8" transform="translate(0,0)"/>
<path d="" fill="#1FB6FD" transform="translate(0,0)"/>
<path d="" fill="#20AEF4" transform="translate(0,0)"/>
<path d="" fill="#1FB6FD" transform="translate(0,0)"/>
<path d="" fill="#1FB6FD" transform="translate(0,0)"/>
<path d="" fill="#20B7FD" transform="translate(0,0)"/>
<path d="" fill="#21B2F5" transform="translate(0,0)"/>
<path d="" fill="#1FB8FE" transform="translate(0,0)"/>
<path d="" fill="#1FB8FE" transform="translate(0,0)"/>
<path d="" fill="#22B3F8" transform="translate(0,0)"/>
<path d="" fill="#2FBBFD" transform="translate(0,0)"/>
<path d="" fill="#1EB6FD" transform="translate(0,0)"/>
<path d="" fill="#1EB5FD" transform="translate(0,0)"/>
<path d="" fill="#1EB4FC" transform="translate(0,0)"/>
<path d="" fill="#26B7FC" transform="translate(0,0)"/>
<path d="" fill="#1EB4FC" transform="translate(0,0)"/>
<path d="" fill="#1FB6FC" transform="translate(0,0)"/>
<path d="" fill="#1EB4FC" transform="translate(0,0)"/>
<path d="" fill="#1EB4FC" transform="translate(0,0)"/>
<path d="" fill="#2DBCFC" transform="translate(0,0)"/>
<path d="" fill="#1EB4FC" transform="translate(0,0)"/>
<path d="" fill="#1FB7FC" transform="translate(0,0)"/>
<path d="" fill="#21B5F8" transform="translate(0,0)"/>
<path d="" fill="#1DB5FC" transform="translate(0,0)"/>
<path d="" fill="#1FB6FC" transform="translate(0,0)"/>
<path d="" fill="#1FB6FD" transform="translate(0,0)"/>
<path d="" fill="#23B8FB" transform="translate(0,0)"/>
<path d="" fill="#28B9FD" transform="translate(0,0)"/>
<path d="" fill="#2CBBFD" transform="translate(0,0)"/>
<path d="" fill="#20B7FD" transform="translate(0,0)"/>
<path d="" fill="#20B0F6" transform="translate(0,0)"/>
<path d="" fill="#20AEF2" transform="translate(0,0)"/>
<path d="" fill="#21B1F5" transform="translate(0,0)"/>
<path d="" fill="#21B4F7" transform="translate(0,0)"/>
<path d="" fill="#20ADF3" transform="translate(0,0)"/>
<path d="" fill="#22B1F3" transform="translate(0,0)"/>
<path d="" fill="#20B2F5" transform="translate(0,0)"/>
<path d="" fill="#24B7FC" transform="translate(0,0)"/>
<path d="" fill="#20B0F1" transform="translate(0,0)"/>
<path d="" fill="#1DACF3" transform="translate(0,0)"/>
<path d="" fill="#20ADF2" transform="translate(0,0)"/>
<path d="" fill="#26BCFD" transform="translate(0,0)"/>
<path d="" fill="#1CA8E6" transform="translate(0,0)"/>
<path d="" fill="#1FABEC" transform="translate(0,0)"/>
<path d="" fill="#20B2F1" transform="translate(0,0)"/>
<path d="" fill="#1EACEC" transform="translate(0,0)"/>
<path d="" fill="#1EA6E8" transform="translate(0,0)"/>
<path d="" fill="#1FACEC" transform="translate(0,0)"/>
<path d="" fill="#1FAFF0" transform="translate(0,0)"/>
<path d="" fill="#23B6FB" transform="translate(0,0)"/>
<path d="" fill="#20AEEE" transform="translate(0,0)"/>
<path d="" fill="#1EABED" transform="translate(0,0)"/>
<path d="" fill="#21B0F0" transform="translate(0,0)"/>
<path d="" fill="#1FACEB" transform="translate(0,0)"/>
<path d="" fill="#1DABEC" transform="translate(0,0)"/>
<path d="" fill="#1EABEC" transform="translate(0,0)"/>
<path d="" fill="#1FABEA" transform="translate(0,0)"/>
<path d="" fill="#1DACEC" transform="translate(0,0)"/>
<path d="" fill="#1FADEC" transform="translate(0,0)"/>
<path d="" fill="#1EACEE" transform="translate(0,0)"/>
<path d="" fill="#1FAFEF" transform="translate(0,0)"/>
<path d="" fill="#20B0EF" transform="translate(0,0)"/>
<path d="" fill="#20ACEE" transform="translate(0,0)"/>
<path d="" fill="#1EAFF0" transform="translate(0,0)"/>
<path d="" fill="#20AEEF" transform="translate(0,0)"/>
<path d="" fill="#23B4FB" transform="translate(0,0)"/>
<path d="" fill="#1EABEB" transform="translate(0,0)"/>
<path d="" fill="#1FABEA" transform="translate(0,0)"/>
<path d="" fill="#1DA7E9" transform="translate(0,0)"/>
<path d="" fill="#1FA9E6" transform="translate(0,0)"/>
<path d="" fill="#26BCFD" transform="translate(0,0)"/>
<path d="" fill="#1FA9E6" transform="translate(0,0)"/>
<path d="" fill="#20AAE8" transform="translate(0,0)"/>
<path d="" fill="#23B0F9" transform="translate(0,0)"/>
<path d="" fill="#1AA3E7" transform="translate(0,0)"/>
<path d="" fill="#1FA8E6" transform="translate(0,0)"/>
<path d="" fill="#1FA7E3" transform="translate(0,0)"/>
<path d="" fill="#22B7FB" transform="translate(0,0)"/>
<path d="" fill="#22BBFF" transform="translate(0,0)"/>
<path d="" fill="#23B8FC" transform="translate(0,0)"/>
<path d="" fill="#21B6FC" transform="translate(0,0)"/>
<path d="" fill="#23B8FD" transform="translate(0,0)"/>
<path d="" fill="#1998CE" transform="translate(0,0)"/>
<path d="" fill="#21B2F7" transform="translate(0,0)"/>
<path d="" fill="#22B2F7" transform="translate(0,0)"/>
<path d="" fill="#20B5FA" transform="translate(0,0)"/>
<path d="" fill="#24B7FC" transform="translate(0,0)"/>
<path d="" fill="#22B1F5" transform="translate(0,0)"/>
<path d="" fill="#22B6FA" transform="translate(0,0)"/>
<path d="" fill="#23B0F7" transform="translate(0,0)"/>
<path d="" fill="#22B4FB" transform="translate(0,0)"/>
<path d="" fill="#21B4FB" transform="translate(0,0)"/>
<path d="" fill="#23B4F9" transform="translate(0,0)"/>
<path d="" fill="#24B5F7" transform="translate(0,0)"/>
<path d="" fill="#1FB3F8" transform="translate(0,0)"/>
<path d="" fill="#21B4FB" transform="translate(0,0)"/>
<path d="" fill="#22B6FA" transform="translate(0,0)"/>
<path d="" fill="#21B2F8" transform="translate(0,0)"/>
<path d="" fill="#21AEEB" transform="translate(0,0)"/>
<path d="" fill="#1FAFEF" transform="translate(0,0)"/>
<path d="" fill="#20B0EF" transform="translate(0,0)"/>
<path d="" fill="#24B6FC" transform="translate(0,0)"/>
<path d="" fill="#22B7FC" transform="translate(0,0)"/>
<path d="" fill="#23B4FA" transform="translate(0,0)"/>
<path d="" fill="#24B8FC" transform="translate(0,0)"/>
<path d="" fill="#22B2FA" transform="translate(0,0)"/>
<path d="" fill="#22B7F9" transform="translate(0,0)"/>
<path d="" fill="#25B7FD" transform="translate(0,0)"/>
<path d="" fill="#24B5FE" transform="translate(0,0)"/>
<path d="" fill="#27BAFE" transform="translate(0,0)"/>
<path d="" fill="#24B8FD" transform="translate(0,0)"/>
<path d="" fill="#21B2F5" transform="translate(0,0)"/>
<path d="" fill="#1EADF1" transform="translate(0,0)"/>
<path d="" fill="#23B6FD" transform="translate(0,0)"/>
<path d="" fill="#25B8FF" transform="translate(0,0)"/>
<path d="" fill="#22BBFE" transform="translate(0,0)"/>
<path d="" fill="#24B9FF" transform="translate(0,0)"/>
<path d="" fill="#20ADF2" transform="translate(0,0)"/>
<path d="" fill="#22B2F3" transform="translate(0,0)"/>
<path d="" fill="#24B4FA" transform="translate(0,0)"/>
<path d="" fill="#24B5FB" transform="translate(0,0)"/>
<path d="" fill="#20AFEF" transform="translate(0,0)"/>
<path d="" fill="#25B7FC" transform="translate(0,0)"/>
<path d="" fill="#24B9FF" transform="translate(0,0)"/>
<path d="" fill="#26B5FB" transform="translate(0,0)"/>
<path d="" fill="#22B1FB" transform="translate(0,0)"/>
<path d="" fill="#22B7FD" transform="translate(0,0)"/>
<path d="" fill="#23B8FE" transform="translate(0,0)"/>
<path d="" fill="#20AEEF" transform="translate(0,0)"/>
<path d="" fill="#23B5FC" transform="translate(0,0)"/>
<path d="" fill="#26BBFE" transform="translate(0,0)"/>
<path d="" fill="#1FAFF0" transform="translate(0,0)"/>
<path d="" fill="#20AFF0" transform="translate(0,0)"/>
<path d="" fill="#22B6FC" transform="translate(0,0)"/>
<path d="" fill="#1FACEE" transform="translate(0,0)"/>
<path d="" fill="#21B1F4" transform="translate(0,0)"/>
<path d="" fill="#1FADEE" transform="translate(0,0)"/>
<path d="" fill="#20ADF0" transform="translate(0,0)"/>
<path d="" fill="#24B3F9" transform="translate(0,0)"/>
<path d="" fill="#1FAEF1" transform="translate(0,0)"/>
<path d="" fill="#1FAFF3" transform="translate(0,0)"/>
<path d="" fill="#1FAFF0" transform="translate(0,0)"/>
<path d="" fill="#1FAEF3" transform="translate(0,0)"/>
<path d="" fill="#24BAFE" transform="translate(0,0)"/>
<path d="" fill="#20AEF5" transform="translate(0,0)"/>
<path d="" fill="#24B2FA" transform="translate(0,0)"/>
<path d="" fill="#23B7FC" transform="translate(0,0)"/>
<path d="" fill="#23B3F9" transform="translate(0,0)"/>
<path d="" fill="#21AFF5" transform="translate(0,0)"/>
<path d="" fill="#22B6FB" transform="translate(0,0)"/>
<path d="" fill="#22B5FC" transform="translate(0,0)"/>
<path d="" fill="#24B5FA" transform="translate(0,0)"/>
<path d="" fill="#21B6FC" transform="translate(0,0)"/>
<path d="" fill="#23B3F9" transform="translate(0,0)"/>
<path d="" fill="#21AFEF" transform="translate(0,0)"/>
<path d="" fill="#21ADF0" transform="translate(0,0)"/>
<path d="" fill="#25B4F9" transform="translate(0,0)"/>
<path d="" fill="#21ADED" transform="translate(0,0)"/>
<path d="" fill="#22B5FA" transform="translate(0,0)"/>
<path d="" fill="#26B6F9" transform="translate(0,0)"/>
<path d="" fill="#22B3F8" transform="translate(0,0)"/>
<path d="" fill="#22B4F8" transform="translate(0,0)"/>
<path d="" fill="#24B3F5" transform="translate(0,0)"/>
<path d="" fill="#1EABF0" transform="translate(0,0)"/>
<path d="" fill="#24B4F5" transform="translate(0,0)"/>
<path d="" fill="#24B4F6" transform="translate(0,0)"/>
<path d="" fill="#1FB0F3" transform="translate(0,0)"/>
<path d="" fill="#21B1F5" transform="translate(0,0)"/>
<path d="" fill="#24B9FD" transform="translate(0,0)"/>
<path d="" fill="#21B0F4" transform="translate(0,0)"/>
<path d="" fill="#22AFF1" transform="translate(0,0)"/>
<path d="" fill="#22B8FE" transform="translate(0,0)"/>
<path d="" fill="#24B6FC" transform="translate(0,0)"/>
<path d="" fill="#22B3F1" transform="translate(0,0)"/>
<path d="" fill="#23B5FC" transform="translate(0,0)"/>
<path d="" fill="#23B9FD" transform="translate(0,0)"/>
<path d="" fill="#07506F" transform="translate(0,0)"/>
<path d="" fill="#1FACF3" transform="translate(0,0)"/>
<path d="" fill="#24B6FB" transform="translate(0,0)"/>
<path d="" fill="#22B4FB" transform="translate(0,0)"/>
<path d="" fill="#1EAEF2" transform="translate(0,0)"/>
<path d="" fill="#24B7FC" transform="translate(0,0)"/>
<path d="" fill="#1EABF6" transform="translate(0,0)"/>
<path d="" fill="#26B8FB" transform="translate(0,0)"/>
<path d="" fill="#23B1F4" transform="translate(0,0)"/>
<path d="" fill="#24B8FC" transform="translate(0,0)"/>
<path d="" fill="#24B3F6" transform="translate(0,0)"/>
<path d="" fill="#23B5FA" transform="translate(0,0)"/>
<path d="" fill="#23B1F5" transform="translate(0,0)"/>
<path d="" fill="#24B4F9" transform="translate(0,0)"/>
<path d="" fill="#24B6FB" transform="translate(0,0)"/>
<path d="" fill="#20ACEE" transform="translate(0,0)"/>
<path d="" fill="#26B9FD" transform="translate(0,0)"/>
<path d="" fill="#24B6FC" transform="translate(0,0)"/>
<path d="" fill="#23B1F4" transform="translate(0,0)"/>
<path d="" fill="#22B2F5" transform="translate(0,0)"/>
<path d="" fill="#21AFF2" transform="translate(0,0)"/>
<path d="" fill="#22B0F0" transform="translate(0,0)"/>
<path d="" fill="#20B0F1" transform="translate(0,0)"/>
<path d="" fill="#043E59" transform="translate(0,0)"/>
<path d="" fill="#20AEF3" transform="translate(0,0)"/>
<path d="" fill="#1EABEE" transform="translate(0,0)"/>
<path d="" fill="#22B4F2" transform="translate(0,0)"/>
<path d="" fill="#22B0F0" transform="translate(0,0)"/>
<path d="" fill="#1FADEF" transform="translate(0,0)"/>
<path d="" fill="#04496D" transform="translate(0,0)"/>
<path d="" fill="#1EA7EA" transform="translate(0,0)"/>
<path d="" fill="#1FABEA" transform="translate(0,0)"/>
<path d="" fill="#00161C" transform="translate(0,0)"/>
<path d="" fill="#1DABEC" transform="translate(0,0)"/>
<path d="" fill="#23AEEB" transform="translate(0,0)"/>
<path d="" fill="#001D28" transform="translate(0,0)"/>
<path d="" fill="#21A8E8" transform="translate(0,0)"/>
<path d="" fill="#20A7E9" transform="translate(0,0)"/>
<path d="" fill="#1CA6E9" transform="translate(0,0)"/>
<path d="" fill="#22ACE7" transform="translate(0,0)"/>
<path d="" fill="#20AAEB" transform="translate(0,0)"/>
<path d="" fill="#002D40" transform="translate(0,0)"/>
<path d="" fill="#1EAAE9" transform="translate(0,0)"/>
<path d="" fill="#1EACEF" transform="translate(0,0)"/>
<path d="" fill="#20AAE8" transform="translate(0,0)"/>
<path d="" fill="#20ADEE" transform="translate(0,0)"/>
<path d="" fill="#1EACED" transform="translate(0,0)"/>
<path d="" fill="#1DAAEA" transform="translate(0,0)"/>
<path d="" fill="#000605" transform="translate(0,0)"/>
<path d="" fill="#20AFEF" transform="translate(0,0)"/>
<path d="" fill="#1FABEA" transform="translate(0,0)"/>
<path d="" fill="#20B1F0" transform="translate(0,0)"/>
<path d="" fill="#1CAAEF" transform="translate(0,0)"/>
<path d="" fill="#1FAEEE" transform="translate(0,0)"/>
<path d="" fill="#21ACED" transform="translate(0,0)"/>
<path d="" fill="#1FAEF0" transform="translate(0,0)"/>
<path d="" fill="#1EAFED" transform="translate(0,0)"/>
<path d="" fill="#1FABEA" transform="translate(0,0)"/>
<path d="" fill="#20AFF1" transform="translate(0,0)"/>
<path d="" fill="#20B0F3" transform="translate(0,0)"/>
<path d="" fill="#23ACE8" transform="translate(0,0)"/>
<path d="" fill="#1FAAEA" transform="translate(0,0)"/>
<path d="" fill="#21AFF4" transform="translate(0,0)"/>
<path d="" fill="#1DA4E7" transform="translate(0,0)"/>
<path d="" fill="#1CA0E3" transform="translate(0,0)"/>
<path d="" fill="#22ACEB" transform="translate(0,0)"/>
<path d="" fill="#00151E" transform="translate(0,0)"/>
<path d="" fill="#1FABEB" transform="translate(0,0)"/>
<path d="" fill="#21ABEA" transform="translate(0,0)"/>
<path d="" fill="#20B0EF" transform="translate(0,0)"/>
<path d="" fill="#000E11" transform="translate(0,0)"/>
<path d="" fill="#1EAAEC" transform="translate(0,0)"/>
<path d="" fill="#1EA9EC" transform="translate(0,0)"/>
<path d="" fill="#20B1F5" transform="translate(0,0)"/>
<path d="" fill="#1FA8E9" transform="translate(0,0)"/>
<path d="" fill="#1EAAE9" transform="translate(0,0)"/>
<path d="" fill="#1DA8EA" transform="translate(0,0)"/>
<path d="" fill="#1EA4E4" transform="translate(0,0)"/>
<path d="" fill="#1FACED" transform="translate(0,0)"/>
<path d="" fill="#1EAAEA" transform="translate(0,0)"/>
<path d="" fill="#1EACF0" transform="translate(0,0)"/>
<path d="" fill="#1FABEC" transform="translate(0,0)"/>
<path d="" fill="#20AFF0" transform="translate(0,0)"/>
<path d="" fill="#21AFF0" transform="translate(0,0)"/>
<path d="" fill="#1FAEF1" transform="translate(0,0)"/>
<path d="" fill="#000000" transform="translate(0,0)"/>
<path d="" fill="#22B1F0" transform="translate(0,0)"/>
<path d="" fill="#22B6FA" transform="translate(0,0)"/>
<path d="" fill="#23B2F9" transform="translate(0,0)"/>
<path d="" fill="#21B1F3" transform="translate(0,0)"/>
<path d="" fill="#24B3FA" transform="translate(0,0)"/>
<path d="" fill="#23B2F9" transform="translate(0,0)"/>
<path d="" fill="#1DACEB" transform="translate(0,0)"/>
<path d="" fill="#25B5F9" transform="translate(0,0)"/>
<path d="" fill="#22B2F7" transform="translate(0,0)"/>
<path d="" fill="#21B2F5" transform="translate(0,0)"/>
<path d="" fill="#22B1F7" transform="translate(0,0)"/>
<path d="" fill="#000503" transform="translate(0,0)"/>
<path d="" fill="#23B8F9" transform="translate(0,0)"/>
<path d="" fill="#23B4F9" transform="translate(0,0)"/>
<path d="" fill="#21B1F7" transform="translate(0,0)"/>
<path d="" fill="#20B2F8" transform="translate(0,0)"/>
<path d="" fill="#22B4F9" transform="translate(0,0)"/>
<path d="" fill="#22B4F6" transform="translate(0,0)"/>
<path d="" fill="#000000" transform="translate(0,0)"/>
<path d="" fill="#000706" transform="translate(0,0)"/>
<path d="" fill="#21B5F6" transform="translate(0,0)"/>
<path d="" fill="#21B6FA" transform="translate(0,0)"/>
<path d="" fill="#20AEF3" transform="translate(0,0)"/>
<path d="" fill="#23B0F6" transform="translate(0,0)"/>
<path d="" fill="#23B0F5" transform="translate(0,0)"/>
<path d="" fill="#21AFF6" transform="translate(0,0)"/>
<path d="" fill="#21AFF8" transform="translate(0,0)"/>
<path d="" fill="#001216" transform="translate(0,0)"/>
<path d="" fill="#24B1F7" transform="translate(0,0)"/>
<path d="" fill="#000000" transform="translate(0,0)"/>
<path d="" fill="#010100" transform="translate(0,0)"/>
<path d="" fill="#000707" transform="translate(0,0)"/>
<path d="" fill="#20AFF2" transform="translate(0,0)"/>
<path d="" fill="#25B5F9" transform="translate(0,0)"/>
<path d="" fill="#00324A" transform="translate(0,0)"/>
<path d="" fill="#1EACF0" transform="translate(0,0)"/>
<path d="" fill="#1FAEF4" transform="translate(0,0)"/>
<path d="" fill="#22B0F4" transform="translate(0,0)"/>
<path d="" fill="#20AFF5" transform="translate(0,0)"/>
<path d="" fill="#000101" transform="translate(0,0)"/>
<path d="" fill="#000403" transform="translate(0,0)"/>
<path d="" fill="#000000" transform="translate(0,0)"/>
<path d="" fill="#002331" transform="translate(0,0)"/>
<path d="" fill="#000000" transform="translate(0,0)"/>
<path d="" fill="#000808" transform="translate(0,0)"/>
<path d="" fill="#000808" transform="translate(0,0)"/>
<path d="" fill="#1482B4" transform="translate(0,0)"/>
</svg>
