<?xml version="1.0" standalone="no"?>
<!DOCTYPE svg PUBLIC "-//W3C//DTD SVG 20010904//EN"
 "http://www.w3.org/TR/2001/REC-SVG-20010904/DTD/svg10.dtd">
<svg version="1.0" xmlns="http://www.w3.org/2000/svg"
 width="215.000000pt" height="264.000000pt" viewBox="0 0 215.000000 264.000000"
 preserveAspectRatio="xMidYMid meet">
<metadata>
Created by potrace 1.16, written by Peter Selinger 2001-2019
</metadata>
<g transform="translate(0.000000,264.000000) scale(0.100000,-0.100000)"
fill="#000000" stroke="none">
<path d="M980 2609 c-25 -11 -78 -27 -119 -34 -41 -8 -104 -30 -141 -49 -37
-20 -95 -43 -130 -53 -35 -9 -74 -28 -91 -44 -25 -23 -29 -34 -29 -81 0 -54
-1 -55 -81 -144 -99 -110 -137 -185 -184 -363 -19 -73 -44 -144 -55 -158 -15
-19 -17 -30 -9 -49 5 -14 9 -47 9 -73 0 -39 6 -56 30 -86 45 -57 40 -82 -33
-172 -71 -88 -117 -155 -135 -195 -22 -52 15 -94 88 -100 30 -3 35 -7 38 -31
2 -15 -8 -52 -22 -83 -14 -31 -26 -62 -26 -70 0 -7 16 -29 35 -48 19 -19 30
-38 25 -41 -6 -3 -10 -21 -10 -40 0 -27 8 -40 46 -72 l47 -39 -13 -65 c-15
-74 -11 -100 22 -149 42 -62 78 -75 203 -73 93 1 208 18 276 39 13 4 20 -11
34 -82 12 -55 29 -101 47 -128 19 -29 28 -54 28 -84 0 -43 0 -43 33 -40 l32 3
0 61 c0 49 -5 68 -27 100 -16 24 -33 72 -44 123 -11 51 -25 92 -37 104 -22 22
-48 21 -192 -7 -44 -8 -117 -15 -162 -16 -74 0 -84 2 -113 27 l-32 26 7 87 c8
97 -3 132 -50 167 -24 17 -25 21 -14 45 15 34 -2 81 -36 96 l-23 11 24 66 c32
88 31 119 -5 156 -23 23 -39 29 -70 29 -23 0 -41 4 -41 9 0 6 37 56 82 113 46
56 91 114 100 128 27 39 23 108 -10 171 -30 58 -37 143 -14 185 6 11 25 76 42
143 40 159 69 215 174 335 85 96 86 98 86 151 0 60 7 68 70 85 25 6 82 29 128
51 45 22 115 46 155 53 39 8 94 24 121 36 47 21 50 22 107 5 33 -9 85 -16 117
-15 109 1 206 -12 231 -31 13 -11 33 -19 45 -19 11 -1 66 -18 121 -38 99 -38
100 -38 125 -89 33 -67 47 -82 91 -100 42 -17 52 -29 115 -150 36 -69 44 -95
44 -138 0 -29 9 -81 19 -116 48 -160 48 -205 -2 -359 -45 -140 -197 -444 -274
-549 -18 -24 -33 -53 -33 -63 0 -11 -14 -37 -31 -58 -30 -37 -31 -42 -28 -118
4 -75 11 -98 129 -391 l125 -311 33 0 c20 0 32 5 32 13 0 24 -46 149 -128 347
-135 328 -144 374 -87 434 22 23 35 47 35 64 0 15 12 39 29 57 16 16 41 59 56
95 15 35 40 83 55 105 37 55 135 267 154 338 9 31 20 57 25 57 9 0 24 113 22
176 0 22 -10 74 -21 115 -11 40 -25 115 -31 164 -7 62 -18 103 -35 132 -13 23
-24 46 -24 52 0 13 -39 75 -75 118 -16 20 -48 44 -72 54 -30 13 -44 25 -48 44
-3 14 -7 36 -10 49 -3 13 -19 32 -37 43 -43 24 -223 93 -245 93 -9 0 -26 11
-38 25 -19 24 -25 25 -181 29 -89 3 -173 10 -188 16 -41 15 -106 11 -156 -11z"/>
<path d="M1282 2379 c-24 -12 -55 -37 -70 -57 -24 -31 -27 -45 -27 -108 0 -65
3 -76 31 -110 83 -104 221 -102 302 4 22 29 27 47 29 101 1 57 -2 70 -28 108
-55 80 -151 104 -237 62z"/>
<path d="M905 2258 c-8 -5 -15 -6 -15 -3 0 3 -13 -1 -29 -9 -16 -9 -31 -12
-35 -9 -3 4 -6 0 -6 -7 0 -7 -3 -11 -6 -8 -7 8 -84 -70 -85 -86 -1 -6 -1 -14
0 -18 0 -5 -4 -8 -10 -8 -5 0 -7 -4 -4 -10 3 -5 2 -10 -4 -10 -5 0 -8 -9 -6
-20 2 -11 -2 -20 -8 -20 -7 0 -6 -4 3 -10 13 -9 13 -10 0 -10 -9 0 -11 -3 -5
-8 6 -4 11 -22 13 -40 3 -38 34 -104 62 -132 11 -11 20 -18 20 -15 0 3 10 -3
22 -15 20 -19 33 -24 51 -21 4 0 7 -3 7 -8 0 -6 9 -8 20 -6 11 2 20 0 20 -5 0
-4 8 -6 18 -4 9 2 34 5 55 8 20 2 44 9 52 16 8 6 20 8 26 4 8 -4 9 -3 5 4 -4
7 -3 12 2 12 14 0 91 77 84 84 -3 3 -1 6 5 6 5 0 10 7 11 15 1 8 3 22 4 30 1
8 4 15 8 15 13 0 2 98 -14 128 -8 16 -12 32 -9 36 4 3 1 6 -6 6 -7 0 -9 5 -6
10 3 6 1 10 -5 10 -6 0 -9 4 -5 9 3 5 -4 12 -15 16 -11 3 -20 10 -20 16 0 13
-92 57 -112 54 -10 -2 -18 0 -18 4 0 10 -46 9 -65 -1z m5 -95 c1 -5 5 -28 9
-52 12 -58 -7 -88 -57 -97 -21 -3 -45 -8 -54 -11 -25 -6 -24 52 2 95 25 41 99
89 100 65z m109 -9 c28 -16 71 -72 71 -91 0 -18 -87 -26 -119 -12 -28 13 -41
44 -41 102 0 22 51 23 89 1z m76 -124 c12 -19 -15 -86 -47 -117 -46 -44 -71
-46 -79 -8 -21 95 -4 115 113 134 4 1 10 -3 13 -9z m-165 -50 c11 -11 20 -30
20 -42 0 -13 3 -33 6 -45 6 -21 3 -23 -27 -23 -43 0 -94 31 -119 72 -26 43
-25 46 8 51 65 10 92 7 112 -13z"/>
<path d="M1638 2203 c-19 -5 -23 -15 -11 -26 3 -4 12 -2 20 4 7 7 13 7 13 2 0
-13 -49 -35 -61 -27 -10 6 -40 -20 -38 -33 1 -4 0 -10 -1 -13 -7 -17 -5 -50 3
-50 5 0 7 -7 3 -15 -3 -8 -1 -15 4 -15 6 0 10 -7 10 -16 0 -8 5 -12 10 -9 6 3
10 -1 10 -9 0 -10 6 -13 15 -10 8 4 15 1 15 -5 0 -6 7 -8 15 -5 8 4 15 2 15
-3 0 -8 33 -10 50 -3 3 1 8 2 13 1 4 0 7 4 7 9 0 6 5 10 11 10 14 0 39 25 39
39 0 6 5 11 11 11 5 0 7 5 3 11 -3 6 0 15 7 20 10 6 10 9 2 9 -8 0 -11 11 -9
29 2 19 -2 32 -11 35 -8 3 -11 10 -8 16 3 5 1 10 -6 10 -6 0 -19 8 -28 18 -15
16 -66 24 -103 15z"/>
<path d="M1839 2038 c-37 -12 -55 -58 -39 -97 23 -58 107 -58 130 -1 25 61
-29 119 -91 98z"/>
<path d="M1597 1944 c-3 -4 -44 -12 -64 -13 -6 -1 -19 -8 -27 -17 -9 -8 -16
-13 -16 -9 0 9 -55 -40 -88 -80 -23 -27 -53 -111 -55 -150 -2 -66 39 -172 81
-213 38 -37 97 -74 105 -65 4 3 7 2 7 -4 0 -11 2 -12 93 -17 41 -2 67 1 67 7
0 6 3 8 6 4 8 -7 67 16 89 35 55 47 74 66 68 72 -3 3 -2 6 4 6 16 0 54 101 56
145 0 11 -10 83 -15 106 -2 7 -9 20 -15 27 -7 7 -13 20 -13 27 0 30 -115 125
-142 117 -5 -1 -8 2 -8 6 0 9 -1 10 -77 15 -29 2 -54 3 -56 1z m148 -56 c50
-27 114 -99 127 -143 37 -131 -10 -248 -125 -309 -41 -21 -59 -25 -120 -22
-43 1 -84 9 -102 18 -47 26 -113 95 -120 127 -2 9 -8 30 -13 47 -20 66 8 169
62 227 13 14 45 37 72 50 41 21 61 25 119 23 40 -1 83 -9 100 -18z"/>
<path d="M1593 1883 c-38 -7 -73 -59 -73 -108 0 -110 128 -157 203 -75 48 54
30 142 -37 174 -34 16 -50 17 -93 9z"/>
<path d="M1619 1627 c-62 -24 -78 -110 -30 -158 35 -35 79 -38 126 -9 56 34
55 118 0 154 -34 22 -63 26 -96 13z m31 -19 c0 21 40 13 65 -13 54 -53 15
-139 -62 -139 -25 0 -41 7 -54 23 -24 29 -24 38 -1 44 12 3 11 5 -6 6 -19 1
-22 5 -17 24 4 12 18 32 32 45 20 19 28 21 34 10 7 -10 9 -10 9 0z"/>
<path d="M613 1812 c-5 -22 -33 -32 -33 -12 0 6 -7 10 -15 10 -8 0 -15 -9 -15
-19 0 -23 -16 -36 -25 -21 -11 18 -24 10 -27 -17 -2 -16 -9 -28 -18 -29 -30
-2 -32 -4 -20 -19 15 -18 5 -35 -21 -35 -10 0 -19 -4 -19 -10 0 -5 5 -10 10
-10 6 0 10 -9 10 -20 0 -11 -7 -20 -15 -20 -20 0 -19 -17 3 -29 16 -10 16 -12
0 -25 -24 -18 -23 -32 2 -39 20 -5 28 -27 10 -27 -5 0 -10 -7 -10 -15 0 -8 9
-15 19 -15 23 0 36 -16 21 -25 -18 -11 -10 -24 18 -27 22 -2 26 -7 24 -25 -4
-25 7 -30 25 -12 14 14 34 2 31 -18 -2 -9 3 -18 10 -20 6 -3 12 0 12 6 0 17
28 13 39 -6 10 -17 12 -17 27 2 14 19 16 19 28 3 18 -24 32 -22 40 4 4 18 8
20 18 10 19 -19 38 -14 38 9 0 18 4 20 26 15 22 -6 25 -4 22 16 -2 19 2 24 25
26 29 4 34 11 16 29 -14 14 -2 36 17 29 21 -8 28 14 9 28 -17 12 -16 14 6 29
23 17 23 17 4 32 -19 15 -19 15 -1 29 19 16 14 36 -10 36 -8 0 -14 7 -14 15 0
8 5 15 10 15 6 0 10 7 10 15 0 8 -9 15 -19 15 -23 0 -36 16 -21 25 18 11 11
28 -10 22 -19 -5 -45 14 -34 26 3 3 3 11 -1 17 -5 8 -10 8 -20 0 -18 -15 -35
-4 -35 22 0 20 -1 20 -19 4 -21 -19 -41 -14 -41 10 0 19 -17 18 -29 -3 -9 -17
-11 -16 -31 2 -21 19 -21 19 -27 -3z"/>
<path d="M1120 1799 c0 -11 -9 -28 -20 -39 -19 -19 -22 -19 -50 -5 -17 9 -31
12 -32 8 0 -5 -2 -13 -2 -20 -1 -7 -10 -19 -20 -26 -19 -14 -19 -15 7 -32 34
-22 34 -48 2 -73 -28 -23 -32 -37 -10 -46 8 -3 15 -14 15 -25 0 -17 3 -18 36
-8 32 10 38 9 50 -8 8 -10 14 -28 14 -40 0 -17 7 -21 40 -21 35 -1 40 1 40 22
0 20 23 54 36 54 3 0 18 -7 34 -15 28 -15 30 -14 30 4 0 10 10 25 22 33 l22
15 -27 18 c-35 23 -35 57 0 80 24 16 25 19 10 30 -9 7 -17 22 -17 35 0 17 -4
21 -17 15 -56 -23 -83 -12 -83 35 0 25 -3 27 -40 27 -32 0 -40 -3 -40 -18z"/>
<path d="M1395 1385 c-43 -23 -65 -55 -65 -98 0 -76 42 -117 120 -117 73 0
130 91 98 156 -29 59 -100 86 -153 59z"/>
<path d="M1180 1350 c-14 -15 -27 -26 -30 -25 -3 2 -5 -12 -5 -30 0 -18 4 -31
9 -27 5 3 6 -2 3 -12 -4 -10 -3 -15 3 -11 6 3 10 2 10 -2 0 -13 70 -15 86 -3
7 7 17 10 21 7 4 -3 8 15 8 39 0 24 -4 44 -8 44 -5 0 -5 5 -1 12 4 6 3 8 -3 5
-5 -4 -20 3 -31 14 -14 13 -22 15 -22 7 0 -9 -3 -9 -8 -2 -4 7 -16 1 -32 -16z"/>
<path d="M1696 1338 c-15 -17 -18 -17 -41 -2 -23 15 -25 15 -25 0 0 -9 -4 -16
-10 -16 -5 0 -7 -13 -4 -30 5 -25 3 -31 -16 -38 -15 -6 -19 -11 -12 -16 6 -4
9 -13 6 -21 -4 -9 3 -15 23 -17 24 -3 28 -7 26 -31 -1 -21 2 -27 12 -23 8 3
17 0 21 -6 4 -7 14 -2 25 13 16 21 21 22 39 11 28 -17 56 7 41 36 -11 21 -4
36 22 45 12 4 15 11 10 19 -4 7 -8 17 -8 23 0 5 -7 10 -15 11 -40 3 -42 5 -38
28 6 32 -33 42 -56 14z"/>
<path d="M1011 1218 c-1 -20 -31 -25 -32 -5 0 6 -5 1 -10 -12 -7 -18 -12 -21
-23 -12 -11 9 -15 7 -19 -10 -5 -20 -8 -21 -23 -8 -15 12 -16 12 -9 -10 6 -21
5 -23 -14 -18 -16 4 -20 1 -18 -17 1 -16 -3 -20 -18 -18 -16 3 -18 1 -7 -9 17
-18 15 -29 -4 -29 -13 0 -14 -3 -4 -15 10 -12 8 -16 -10 -23 -20 -7 -21 -10
-7 -15 22 -8 22 -27 0 -27 -16 -1 -16 -2 1 -15 20 -15 20 -15 0 -30 -17 -13
-17 -14 -1 -15 20 0 23 -26 5 -33 -7 -3 -3 -6 10 -6 25 -1 28 -11 10 -30 -11
-10 -9 -12 7 -9 13 2 20 -3 20 -12 0 -8 8 -18 17 -22 11 -5 16 -14 12 -25 -5
-14 -4 -15 4 -4 12 17 35 4 27 -16 -4 -13 -3 -14 10 -3 12 10 16 8 23 -11 6
-15 11 -18 16 -11 10 17 26 15 26 -4 0 -14 3 -14 16 -3 13 10 17 10 25 -2 8
-12 10 -12 18 0 8 12 13 12 24 3 12 -10 16 -9 21 4 5 13 9 14 21 4 12 -10 15
-9 15 5 0 12 6 16 20 12 11 -3 18 0 17 7 -1 6 8 10 19 9 18 -2 21 2 17 18 -5
19 -3 20 18 14 21 -7 22 -6 11 8 -14 17 0 33 18 22 7 -4 8 3 4 21 -6 23 -4 26
10 21 19 -7 22 9 4 17 -9 3 -7 9 6 20 11 9 14 16 8 16 -19 0 -14 28 6 33 16 4
16 5 0 6 -20 1 -25 31 -6 31 6 0 3 7 -8 16 -13 11 -15 17 -6 20 6 3 12 10 12
15 0 6 -4 8 -9 4 -5 -3 -13 0 -17 6 -3 6 0 15 7 20 10 6 8 9 -10 9 -18 0 -22
4 -18 19 3 12 -1 18 -12 17 -9 0 -15 6 -15 15 1 9 -6 16 -15 15 -10 -1 -15 6
-15 17 2 14 -1 15 -12 6 -15 -12 -38 -3 -28 12 3 6 -5 7 -22 3 -23 -6 -26 -4
-21 10 4 9 2 16 -3 16 -6 0 -10 -4 -10 -10 0 -14 -27 -12 -33 3 -4 10 -6 10
-6 0 -1 -7 -7 -13 -15 -13 -8 0 -17 6 -19 13 -3 7 -6 5 -6 -5z m143 -78 c20
-12 48 -42 63 -67 30 -52 27 -57 -50 -67 -75 -10 -113 13 -122 73 -3 25 -9 57
-12 70 -6 23 -4 24 40 19 25 -3 62 -15 81 -28z m-130 -42 c6 -42 5 -65 -5 -87
-16 -36 -19 -38 -100 -47 l-62 -7 7 44 c8 54 46 113 89 139 48 30 61 23 71
-42z m218 -138 c-4 -48 -32 -99 -73 -131 -60 -48 -72 -44 -85 30 -11 60 -10
67 9 92 15 21 33 30 71 37 75 14 81 12 78 -28z m-214 -21 c21 -16 29 -35 38
-85 l11 -64 -33 0 c-44 0 -83 16 -117 48 -28 27 -57 72 -57 90 0 8 42 18 123
31 5 0 21 -8 35 -20z"/>
<path d="M1362 1093 c-7 -3 -19 -18 -28 -35 -12 -24 -13 -36 -4 -58 11 -27 46
-50 76 -50 24 0 64 47 64 75 0 49 -60 87 -108 68z"/>
<path d="M1057 693 c-4 -6 -20 -9 -37 -8 -20 1 -30 -3 -30 -13 0 -8 -6 -12
-15 -8 -9 3 -15 0 -15 -9 0 -8 -4 -15 -10 -15 -5 0 -10 -7 -10 -15 0 -8 -4
-15 -10 -15 -5 0 -7 -7 -4 -15 4 -8 1 -15 -6 -15 -9 0 -10 -3 -1 -13 8 -10 7
-17 -1 -25 -9 -9 -9 -12 1 -12 8 0 11 -6 7 -15 -3 -9 0 -15 10 -15 10 0 14 -6
10 -15 -3 -9 0 -15 9 -15 8 0 15 -4 15 -10 0 -5 7 -10 15 -10 8 0 15 -4 15
-10 0 -5 7 -7 15 -4 9 4 15 1 15 -7 0 -10 3 -10 12 -1 8 8 15 9 25 1 10 -9 13
-8 13 1 0 7 7 10 15 6 9 -3 15 0 15 9 0 9 6 12 15 9 9 -4 15 0 15 10 0 9 5 16
10 16 6 0 10 7 10 15 0 8 4 15 10 15 5 0 7 7 4 15 -4 8 -1 15 6 15 8 0 9 4 3
13 -5 6 -9 24 -8 40 1 17 -4 27 -13 27 -8 0 -12 6 -8 15 3 9 0 15 -9 15 -8 0
-15 5 -15 10 0 6 -7 10 -15 10 -8 0 -15 5 -15 11 0 5 -5 7 -11 3 -6 -3 -15 -1
-19 6 -4 7 -10 8 -13 3z"/>
<path d="M1274 578 c-3 -4 -10 -6 -15 -3 -5 4 -8 -4 -6 -17 1 -17 -3 -23 -17
-21 -11 1 -24 -4 -30 -10 -14 -15 -13 -84 2 -99 9 -9 12 -9 12 0 0 7 5 12 12
12 7 0 5 -7 -5 -17 -14 -16 -14 -19 1 -33 9 -8 18 -14 19 -12 2 1 5 1 8 1 3
-1 10 -3 15 -4 6 -1 12 -4 15 -5 13 -7 31 -5 43 3 6 5 12 6 12 3 0 -4 7 0 16
8 8 9 12 21 8 27 -4 8 -3 9 5 5 13 -8 44 18 33 28 -3 4 0 11 8 16 12 8 12 10
1 10 -11 0 -11 3 -1 15 10 12 10 15 0 15 -7 0 -10 6 -8 13 6 15 -39 60 -47 47
-3 -5 3 -18 15 -30 11 -11 20 -26 20 -32 0 -7 -6 -4 -12 7 -6 11 -18 25 -26
31 -8 6 -12 16 -8 22 3 6 1 14 -4 17 -18 11 -60 13 -66 3z"/>
<path d="M1358 353 c-6 -7 -15 -10 -20 -7 -11 7 -49 -26 -42 -37 2 -4 -4 -13
-15 -18 -13 -7 -17 -17 -14 -31 3 -12 0 -20 -6 -20 -7 0 -11 -8 -9 -17 1 -10
-1 -24 -5 -31 -5 -7 -2 -26 7 -43 9 -17 13 -36 10 -41 -3 -5 3 -12 15 -15 12
-3 21 -12 21 -19 0 -8 8 -18 18 -21 9 -4 22 -13 27 -20 12 -16 93 -25 101 -12
3 6 14 7 25 4 10 -4 19 -2 19 3 0 5 14 12 30 16 17 3 33 14 37 23 4 10 13 23
21 29 9 6 12 16 7 24 -4 7 -2 15 4 20 19 11 23 87 5 105 -8 8 -13 19 -9 24 3
6 -4 15 -15 21 -11 6 -20 17 -20 25 0 8 -7 15 -15 15 -7 0 -18 8 -24 18 -8 13
-23 17 -76 17 -41 0 -70 -4 -77 -12z"/>
</g>
</svg>
